<?xml version="1.0" encoding="utf-8"?>
<!-- Generator: Adobe Illustrator 22.1.0, SVG Export Plug-In . SVG Version: 6.00 Build 0)  -->
<svg version="1.1" id="Layer_1" xmlns="http://www.w3.org/2000/svg" xmlns:xlink="http://www.w3.org/1999/xlink" x="0px" y="0px"
	 viewBox="0 0 200 200" style="enable-background:new 0 0 200 200;" xml:space="preserve">
<style type="text/css">
	.st0{fill:#F9F9F9;}
</style>
<g>
	<path class="st0" d="M113,12c4.7,0,9.3,0,14,0c0.9,0.3,1.9,0.7,2.8,0.8c15.4,1.9,28.5,8.5,39.2,19.7c10.3,10.8,17.1,23.7,20.9,38
		c2.1,8,2.8,16.3,4.1,24.4c0,0.7,0,1.3,0,2c-0.4,3.5-0.7,6.9-1.2,10.4c-5.6,43.4-42,78.2-84.5,80.6C61.8,190.6,22,161.7,11,117.3
		C4.7,92,10.9,70.1,29.9,52.2C49.3,34,72.3,22,97.9,15.1C102.9,13.7,108,13,113,12z"/>
</g>
</svg>
