<?xml version="1.0" encoding="utf-8"?>
<!-- Generator: Adobe Illustrator 22.1.0, SVG Export Plug-In . SVG Version: 6.00 Build 0)  -->
<svg version="1.1" id="Layer_1" xmlns="http://www.w3.org/2000/svg" xmlns:xlink="http://www.w3.org/1999/xlink" x="0px" y="0px"
	 viewBox="0 0 2824 866" style="enable-background:new 0 0 2824 866;" xml:space="preserve">
<style type="text/css">
	.st0{fill:#F6FAFE;}
	.st1{opacity:8.000000e-02;fill:none;stroke:#67120F;stroke-width:2;enable-background:new    ;}
	.st2{opacity:8.000000e-02;fill:none;stroke:#67120F;stroke-width:2;stroke-linecap:round;enable-background:new    ;}
	.st3{fill:#04D2C8;}
	.st4{display:none;}
	.st5{display:inline;}
	.st6{fill:#FD8376;}
	.st7{fill:none;stroke:#FFFFFF;stroke-width:2;}
	.st8{display:inline;fill:none;stroke:#FFFFFF;stroke-width:2;stroke-linecap:round;}
	.st9{fill:none;stroke:#FFFFFF;stroke-width:2;stroke-linecap:round;}
	.st10{fill:#3E59FF;}
	.st11{fill:#FE9801;}
	.st12{fill:#42495B;}
	.st13{fill:#45407E;}
</style>
<g id="Marketing-Page">
	<path id="bg" class="st0" d="M2818.8,0.5c9.4,52.1,11.6,105.2,6.7,157.9c-43.1,458-621.6,770.8-1292.1,698.8
		C913.5,790.6-80.7,207.8,237.7,3.4L2818.8,0.5z"/>
	<g id="Illustration">
		<path id="Hill" class="st1" d="M1835.1,805.7c2.2-0.3,4.4-0.6,6.6-0.9 M1861.2,802.4c6.3-0.7,12.6-1.3,18.9-1.9
			c13.2-1.2,26.4-2.1,39.5-2.8 M1953.2,796.6c63.7-1.1,127.4,4.3,190.1,16.2 M1613.3,864c64.9-26,132.6-44.5,201.7-55.3"/>
		<g id="Clouds">
			<g id="_2">
				<path id="Cloud_copy_7" class="st1" d="M1769.7,315.5h-16.3 M1742.9,315.5h-41.1"/>
				<path id="Cloud_copy_8" class="st1" d="M1753.7,264.9c12.6-8.6,29.9-5.4,38.5,7.3c8.6,12.6,5.4,29.9-7.3,38.5
					c-4.6,3.2-10.1,4.8-15.7,4.8"/>
				<path id="Cloud_copy_9" class="st1" d="M1739.7,258.3c0-6.8,5.6-12.3,12.4-12.3s12.3,5.5,12.3,12.3c0,1.1-0.1,2.1-0.4,3.2"/>
				<path id="Cloud_copy_10" class="st1" d="M1706.9,269c-2.9-11.3,3.8-22.9,15.2-25.8c7.9-2.1,16.3,0.6,21.5,6.9"/>
				<path id="Cloud_copy_11" class="st1" d="M1701.8,315.5c-13.1,0-23.7-10.7-23.7-23.8c0-13.1,10.7-23.7,23.8-23.7
					c5.6,0,11.1,2,15.4,5.7"/>
			</g>
			<g id="_1_copy">
				<path id="Cloud_copy_18" class="st1" d="M2153.6,133.5H2101"/>
				<path id="Cloud_copy_25" class="st1" d="M2154.9,106.5c6.3-5.9,16.1-5.5,22,0.8s5.5,16.1-0.8,22c-1.5,1.4-3.3,2.5-5.2,3.2"/>
				<path id="Cloud_copy_26" class="st1" d="M2121,90.3c9.8-10.2,26.1-10.5,36.3-0.6c3.1,3,5.4,6.7,6.7,10.8"/>
				<path id="Cloud_copy_27" class="st1" d="M2092.4,110.6c-0.1-0.9-0.2-1.8-0.2-2.6c0-10.2,8.3-18.4,18.5-18.3
					c7,0,13.3,4,16.4,10.2"/>
				<path id="Cloud_copy_28" class="st1" d="M2081.6,126.6c-0.4-1.1-0.6-2.3-0.6-3.5c0-5.7,4.7-10.4,10.4-10.4c3,0,5.9,1.4,7.9,3.7"
					/>
			</g>
			<g id="Cloud_3">
				<path id="Cloud_copy_13" class="st1" d="M2094.1,160.2h-5.5 M2085.4,160.2h-35.9"/>
				<path id="Cloud_copy_14" class="st1" d="M2097.2,140.6c5.4,0.2,9.6,4.7,9.5,10.1c-0.2,5.1-4.3,9.3-9.5,9.5"/>
				<path id="Cloud_copy_15" class="st1" d="M2082,140.3c0-3.6,2.9-6.6,6.5-6.6s6.6,2.9,6.6,6.5c0,1.1-0.3,2.3-0.9,3.3
					c-0.5,0.8-1.1,1.5-1.9,2.1"/>
				<path id="Cloud_copy_16" class="st1" d="M2054.4,138.5c0.6-8.2,7.8-14.3,15.9-13.6c5.5,0.4,10.3,3.9,12.5,9"/>
				<path id="Cloud_copy_17" class="st1" d="M2049.8,160.2c-5.7-0.1-10.2-4.7-10.2-10.4c0.1-5.7,4.7-10.2,10.4-10.2
					c3,0,5.8,1.3,7.7,3.6"/>
			</g>
			<g>
				<path id="Cloud_copy_2" class="st1" d="M2117.4,679.7c6.5-5.7,16.4-5,22.1,1.5c2.5,2.8,3.8,6.5,3.9,10.3"/>
				<path id="Cloud_copy_3" class="st1" d="M2065.7,714.7c-6.7-16.4,1.1-35.1,17.5-41.8c14.5-6,31.3-0.5,39.5,12.9"/>
				<path id="Cloud_copy_4" class="st1" d="M2054.1,736c-10.5,0-19-8.5-19-19.1s8.5-19,19.1-19c3.3,0,6.6,0.9,9.5,2.6"/>
				<path id="Cloud_copy_26-2" class="st1" d="M2153.8,730.2c8.3-10.7,23.6-12.6,34.3-4.3c4.6,3.6,7.7,8.6,8.9,14.3"/>
				<path id="Cloud_copy" class="st1" d="M2134.4,697.2c8.4-10,23.3-11.3,33.3-2.9c7.8,6.6,10.5,17.4,6.7,26.9"/>
				<path id="Cloud_copy_5" class="st1" d="M2114.4,736h-60.3"/>
				<path id="Shape_2_copy" class="st1" d="M2120.5,736h5.3"/>
			</g>
			<g>
				<path id="Cloud_copy_18-2" class="st1" d="M2191.4,769.5h-64.1"/>
				<path id="Cloud_copy_27-2" class="st1" d="M2128.9,750.4c-2.9-9.2,2.2-19.1,11.5-22c8.3-2.6,17.2,1.2,21,9"/>
				<path id="Cloud_copy_28-2" class="st1" d="M2127.3,769.5c-5.5,0-9.9-4.4-9.9-9.9s4.4-9.9,9.9-9.9c2.9,0,5.7,1.3,7.5,3.5"/>
			</g>
		</g>
		<g id="Ripple">
			<path class="st2" d="M1917.1,470.4c-1.5,1.3-3.1,2.5-4.8,3.5 M1906.4,477.1c-0.6,0.3-1.2,0.5-1.8,0.8c-24.3,10-52-1.6-62-25.9
				c-4.7-11.4-4.8-24.3-0.2-35.8c0.4-1.1,0.9-2.1,1.4-3.2c0.5-1,1.1-2,1.6-3c0.8-1.4,1.6-2.7,2.6-3.9c0.7-1,1.5-2,2.3-2.9
				c0.1-0.1,0.2-0.2,0.3-0.3 M1854.3,399.1c0.5-0.5,1.1-1,1.6-1.4 M1860.8,394.1c1.3-0.8,2.6-1.6,4-2.3c0.7-0.4,1.5-0.7,2.2-1.1
				c1.3-0.6,2.6-1.1,4-1.6 M1876.8,387.5c1.5-0.3,3-0.6,4.6-0.7c1.7-0.2,3.5-0.3,5.2-0.3c26.2,0,47.5,21.2,47.5,47.4
				c0,9.9-3.1,19.6-8.9,27.7c-0.9,1.3-1.9,2.5-2.9,3.7"/>
			<path id="Ellipse_3_copy" class="st2" d="M1922.2,315.7c1.8,0.5,3.5,1.1,5.3,1.7 M1934.1,320c1,0.4,2,0.9,3,1.3
				c1.6,0.7,3.1,1.4,4.6,2.2c1.5,0.8,3.1,1.6,4.6,2.4 M1953.8,330.4c1.5,1,2.9,2,4.4,3c1.1,0.8,2.1,1.5,3.1,2.3c1.3,1,2.6,2,3.8,3
				c52.6,43.5,60,121.3,16.5,173.9c-35,42.3-93.7,56.5-144.1,34.7c-0.8-0.3-1.6-0.7-2.3-1c-0.6-0.3-1.2-0.6-1.8-0.9
				c-0.5-0.2-1-0.5-1.6-0.8c-0.4-0.2-0.9-0.4-1.3-0.7 M1825.8,541.5c-0.5-0.3-0.9-0.5-1.4-0.8 M1819.9,538c-0.6-0.4-1.1-0.7-1.7-1.1
				s-1.1-0.8-1.7-1.2c-0.3-0.2-0.7-0.5-1-0.7c-0.7-0.5-1.4-1-2.1-1.5c-0.3-0.2-0.6-0.4-0.9-0.7c-0.8-0.6-1.6-1.2-2.4-1.8
				c-0.6-0.5-1.2-1-1.9-1.5 M1804,525.9c-0.1-0.1-0.3-0.3-0.5-0.4c-0.8-0.7-1.5-1.4-2.2-2.1c-0.7-0.7-1.4-1.3-2-2
				c-0.7-0.7-1.4-1.4-2.1-2.1c-0.8-0.9-1.6-1.7-2.4-2.6c-45.6-50.7-41.5-128.8,9.2-174.5c28.7-25.8,67.7-36.7,105.6-29.6
				c1.3,0.2,2.6,0.5,3.8,0.8c1.1,0.2,2.1,0.5,3.2,0.8"/>
			<path id="Ellipse_3_copy_2" class="st2" d="M1654.5,287.3c0.6-1,1.2-1.9,1.9-2.9 M1659.4,279.8c0.4-0.5,0.8-1.1,1.1-1.6
				c0.6-0.8,1.1-1.6,1.7-2.5c0.5-0.7,1-1.4,1.5-2 M1667.3,268.7c0.6-0.8,1.2-1.6,1.9-2.4c0.5-0.6,0.9-1.2,1.4-1.8c1-1.3,2-2.5,3-3.8
				c0.9-1.2,1.9-2.3,2.9-3.5c0.6-0.8,1.3-1.5,1.9-2.3 M1682.7,250.2c1-1.1,2-2.2,3.1-3.3c0.9-0.9,1.8-1.9,2.7-2.8
				c0.4-0.5,0.9-0.9,1.3-1.4c0.6-0.6,1.1-1.1,1.6-1.7c1-1,2.1-2.1,3.1-3.1c0.8-0.7,1.5-1.5,2.3-2.2c0.6-0.6,1.3-1.2,2-1.9
				s1.4-1.3,2.1-2c0.8-0.7,1.6-1.5,2.4-2.2c101.7-91.1,254.9-93.7,359.6-6c1.3,1.1,2.6,2.2,3.9,3.3c1,0.9,2,1.8,3.1,2.7l0.7,0.6
				 M2074.2,233.7c0.5,0.4,0.9,0.9,1.4,1.3c0.4,0.4,0.8,0.7,1.1,1.1c0.5,0.5,1.1,1,1.6,1.6l1.1,1.1 M2082.7,242c0.5,0.5,1,1,1.4,1.5
				l1.1,1.2 M2088.3,247.8c101.1,109.6,96.3,279.8-10.9,383.4c-1.2,1.2-2.4,2.3-3.6,3.4c-1.4,1.3-2.9,2.7-4.4,4
				c-1.4,1.2-2.7,2.4-4.1,3.6c-1.2,1.1-2.5,2.1-3.8,3.2c-1.1,0.9-2.2,1.8-3.3,2.7c-0.7,0.6-1.4,1.1-2.1,1.7
				c-0.7,0.6-1.4,1.1-2.2,1.7c-1.2,0.9-2.4,1.8-3.6,2.7c-0.7,0.5-1.4,1-2.1,1.6c-0.9,0.6-1.7,1.3-2.6,1.9 M2040.9,661
				c-0.7,0.5-1.4,0.9-2.1,1.4c-0.3,0.2-0.6,0.4-0.9,0.6c-0.8,0.6-1.7,1.1-2.5,1.6c-0.6,0.4-1.2,0.7-1.8,1.1c-0.8,0.5-1.5,1-2.3,1.5
				c-0.6,0.4-1.3,0.8-1.9,1.2 M2024.1,671.6c-0.9,0.5-1.7,1-2.6,1.5c-1.1,0.6-2.2,1.2-3.3,1.8c-0.5,0.3-0.9,0.5-1.4,0.8
				 M2012.2,678.1c-0.8,0.4-1.5,0.8-2.3,1.2 M2005.4,681.5c-0.7,0.4-1.5,0.7-2.2,1.1c-1.3,0.6-2.7,1.2-4,1.8
				c-0.7,0.3-1.4,0.6-2.1,0.9c-0.7,0.3-1.3,0.6-2,0.9c-1.5,0.6-3,1.3-4.4,1.9c-33.1,13.5-68.4,20.5-104.1,20.4
				c-151.6,0-274.5-122.9-274.5-274.5c-0.1-47.5,12.3-94.3,35.8-135.6c0.5-0.9,1.1-1.9,1.6-2.8c0.7-1.1,1.3-2.3,2-3.4"/>
			<path id="Ellipse_3_copy_3" class="st1" d="M1377.7,605.1c-0.4-1.1-0.8-2.3-1.1-3.5 M1374.5,595.1c-0.4-1.1-0.7-2.3-1.1-3.4
				c-0.4-1.2-0.7-2.3-1.1-3.5s-0.7-2.3-1-3.5 M1369.3,577.4l-0.8-2.8c-0.3-1-0.6-2-0.8-3c-0.3-1.2-0.7-2.5-1-3.7
				c-0.2-0.9-0.5-1.8-0.7-2.8c-0.2-0.8-0.4-1.5-0.6-2.3c-0.2-0.7-0.4-1.5-0.5-2.2c-0.2-0.9-0.4-1.9-0.7-2.8 M1363.1,552.7l-0.6-2.7
				c-0.2-1.1-0.5-2.1-0.7-3.2c-0.2-1.1-0.5-2.3-0.7-3.4c-0.2-1.2-0.5-2.4-0.7-3.6c-0.2-1.1-0.4-2.2-0.7-3.4
				c-0.2-0.9-0.4-1.9-0.5-2.8c-0.2-1.2-0.4-2.3-0.6-3.5s-0.4-2.3-0.6-3.5l-0.5-3c-4.9-29.5-7.4-59.3-7.4-89.2
				c0-177.6,86.3-335.1,219.2-432.9 M2207.4,3.4c131.5,97.9,216.7,254.5,216.7,431 M1557.9,858.8
				c-78.3-60.7-138.2-141.9-173.4-234.6c-0.6-1.5-1.1-2.9-1.6-4.4c-0.4-1-0.8-2.1-1.1-3.1c-0.4-1-0.8-2.1-1.1-3.1
				c-0.4-1.1-0.8-2.2-1.1-3.3"/>
		</g>
		<g>
			<g>
				<path class="st3" d="M1659.5,408c0-1.2-1-2.2-2.2-2.2H1640c-1.2,0-2.2,1-2.2,2.2s1,2.2,2.2,2.2h17.3
					C1658.6,410.1,1659.5,409.2,1659.5,408z"/>
				<path class="st3" d="M1706.8,405.8h-17.3c-1.2,0-2.2,1-2.2,2.2s1,2.2,2.2,2.2h17.3c1.2,0,2.2-1,2.2-2.2S1708,405.8,1706.8,405.8
					z"/>
				<path class="st3" d="M1673.4,394.1c1.2,0,2.2-1,2.2-2.2v-17.3c0-1.2-1-2.2-2.2-2.2s-2.2,1-2.2,2.2v17.3
					C1671.3,393.1,1672.3,394.1,1673.4,394.1z"/>
				<path class="st3" d="M1684.8,398.8c0.6,0,1.1-0.2,1.5-0.6l12.3-12.3c0.8-0.8,0.8-2.2,0-3.1s-2.2-0.8-3.1,0l-12.3,12.3
					c-0.8,0.8-0.8,2.2,0,3.1C1683.7,398.6,1684.3,398.8,1684.8,398.8z"/>
				<path class="st3" d="M1660.6,398.2c0.4,0.4,1,0.6,1.5,0.6s1.1-0.2,1.5-0.6c0.8-0.8,0.8-2.2,0-3.1l-12.3-12.3
					c-0.8-0.8-2.2-0.8-3.1,0c-0.8,0.8-0.8,2.2,0,3.1L1660.6,398.2z"/>
				<path class="st3" d="M1699.4,421.6c-1.6-1.4-3.7-2.2-5.8-2.2h-2h-7.1h-3.3v-8.7c0-4.2-1.2-7.2-3.7-9c-3.9-2.8-9.2-1.2-9.4-1.2
					c-0.9,0.3-1.5,1.1-1.5,2.1v10.5c0,3.2-1.5,5.9-4.6,8.1c-2.3,1.7-4.7,2.4-5,2.5l-0.2,0.1c-0.8-0.9-2-1.5-3.3-1.5h-8.2
					c-2.4,0-4.4,2-4.4,4.4v26.9c0,2.4,2,4.4,4.4,4.4h8.2c1.1,0,2.1-0.4,2.8-1c1.7,1.6,3.9,2.6,6.3,2.6h8.2h0.8h16.8
					c2.6,0,4.9-0.6,6.6-1.8c2.2-1.5,3.6-3.9,4-7l3.3-20.7C1703,426.9,1701.8,423.7,1699.4,421.6z M1653.7,453.6
					c0,0.1-0.1,0.1-0.1,0.1h-8.2c-0.1,0-0.1-0.1-0.1-0.1v-26.9c0-0.1,0.1-0.1,0.1-0.1h8.2c0.1,0,0.1,0.1,0.1,0.1V453.6z
					 M1698.2,429.5l-3.3,20.7v0.1c-0.1,1.2-0.6,5-6.4,5h-16.8h-0.8h-8.2c-2.3,0-4.3-1.7-4.7-4c0-0.1,0-0.2-0.1-0.3v-23.1h0.1h0.1
					c0.1,0,3.2-0.9,6.2-3.1c4.2-3,6.5-7.1,6.5-11.7v-8.7c1.2-0.1,2.8-0.1,4,0.8c1.3,1,1.9,2.8,1.9,5.5v10.9c0,1.2,1,2.2,2.2,2.2h5.5
					h7.1h2c1.1,0,2.1,0.4,3,1.1C1697.9,426,1698.5,427.7,1698.2,429.5z"/>
			</g>
		</g>
		<g id="Notification" class="st4">
			<g transform="translate(-772 -88)" class="st5">
				<path id="bubble-2" class="st6" d="M2765.7,546.9l46.8,12.2c5.5,1.4,8.7,7,7.3,12.4l0,0l-9.4,36.2c-1.4,5.5-7,8.7-12.4,7.3
					l-28.4-7.4l-8.9,4.7l-5.5-8.5l-3.9-1c-5.5-1.4-8.7-7-7.3-12.4l0,0l9.4-36.2C2754.7,548.7,2760.3,545.5,2765.7,546.9
					L2765.7,546.9z"/>
			</g>
			<g transform="translate(-772 -88)" class="st5">
				<path id="bubble-2_1_" class="st7" d="M1993.7,458.9l46.8,12.2c5.5,1.4,8.7,7,7.3,12.4l0,0l-9.4,36.2c-1.4,5.5-7,8.7-12.4,7.3
					l-28.4-7.4l-8.9,4.7l-5.5-8.5l-3.9-1c-5.5-1.4-8.7-7-7.3-12.4l0,0l9.4-36.2C1982.7,460.7,1988.3,457.5,1993.7,458.9
					L1993.7,458.9z"/>
			</g>
			<path id="Shape_2_copy_5" class="st8" d="M2017.1,488.2l15.8,4.1"/>
			<path id="Shape_2_copy_5-2" class="st8" d="M2015.7,493.4l18.4,4.8"/>
			<path id="Shape_2_copy_5-3" class="st8" d="M2014.3,498.7l9.9,2.6"/>
			<path id="Shape_2_copy_5-4" class="st8" d="M2026.9,502l1.3,0.3"/>
			<g id="Bell" class="st5">
				<path id="Rounded_Rectangle_2" class="st7" d="M2005.3,492.8L2005.3,492.8c-0.3,1.5,0.3,3.1,1.5,4v0.1c1.5,0.8,2,2.7,1.1,4.2
					c-0.7,1.2-2.1,1.8-3.4,1.4l-8.9-2.3l-9.1-2.4c-1.6-0.4-2.6-2.1-2.2-3.7c0.3-1.2,1.3-2.1,2.6-2.3c0.1,0,0.2,0,0.3,0
					c0.1,0,0.3,0,0.4,0l0.1-0.1c1-0.2,2-0.9,2.5-1.8c0.2-0.4,0.4-0.9,0.5-1.4l0.1-0.2l1.9-7.2c1.1-4,5.2-6.4,9.2-5.3
					s6.3,5.1,5.3,9.1L2005.3,492.8z"/>
				<path class="st7" d="M1999.6,501.2c-0.6,2.2-2.8,3.5-5,2.9s-3.5-2.8-2.9-5l0,0"/>
			</g>
		</g>
		<g id="Notification-2" class="st4">
			<g transform="translate(-772 -88)" class="st5">
				<path id="bubble-3" class="st6" d="M2197.4,197.5l70.5,8.7c8.2,1,14.1,8.5,13.1,16.7l0,0l-6.7,54.6c-1,8.2-8.5,14.1-16.7,13.1
					l0,0l-42.8-5.2l-12.1,8.6l-9.7-11.3l-5.9-0.7c-8.2-1-14.1-8.5-13.1-16.7l6.7-54.6C2181.7,202.4,2189.2,196.5,2197.4,197.5z"/>
			</g>
			<g transform="translate(-772 -88)" class="st5">
				<path id="bubble-3_1_" class="st7" d="M1425.4,109.5l70.5,8.7c8.2,1,14.1,8.5,13.1,16.7l0,0l-6.7,54.6
					c-1,8.2-8.5,14.1-16.7,13.1l0,0l-42.8-5.2l-12.1,8.6l-9.7-11.3l-5.9-0.7c-8.2-1-14.1-8.5-13.1-16.7l6.7-54.6
					C1409.7,114.4,1417.2,108.5,1425.4,109.5z"/>
			</g>
			<path class="st8" d="M1466,147.8l27.8,3.4"/>
			<path id="Shape_2_copy_2" class="st8" d="M1465.1,155.7l19.9,2.4"/>
			<path id="Shape_2_copy_3" class="st8" d="M1464.1,163.6l17.9,2.2"/>
			<path id="Shape_2_copy_4" class="st8" d="M1485.9,166.3l2,0.2"/>
			<g id="Smiley" class="st5">
				<path class="st9" d="M1447.6,158.6c-2.4,4.5-7.3,7.1-12.4,6.5"/>
				<path id="Ellipse_6_copy_2" class="st9" d="M1439.6,150.5c0.6-2.4,3-3.9,5.4-3.3c2.1,0.5,3.5,2.4,3.4,4.5"/>
				<path id="Ellipse_6_copy_3" class="st9" d="M1427.7,149.1c0.6-2.4,3-3.9,5.4-3.3c2.1,0.5,3.5,2.4,3.4,4.5"/>
				<circle class="st7" cx="1437.6" cy="153.8" r="18.5"/>
			</g>
		</g>
	</g>
</g>
<path class="st10" d="M1394.6,217.5l10.6,18.3c2.3,4,7.4,5.4,11.5,3.1c4-2.3,5.4-7.4,3.1-11.5l-6.3-10.9l5.5-3.1
	c1-0.6,1.3-1.9,0.8-2.9l-2.7-4.7c0.3-0.1,2.5-0.5,40.2-7.9c4.7-0.3,7.5-5.4,5.1-9.4l-7-12.1l4.5-6.8c0.4-0.7,0.5-1.5,0.1-2.2
	l-4.2-7.3c-0.4-0.7-1.2-1.1-1.9-1l-8.1,0.5l-7.7-13.4c-1.1-1.9-3.1-3.1-5.4-3.1h-0.1c-2.2,0-4.1,1.1-5.3,2.9l-27.4,34.9l-17.8,10.3
	c-7,4-9.4,13-5.4,20.1C1380.1,217.7,1388,220.2,1394.6,217.5z M1416.1,229.5c1.2,2,0.5,4.6-1.5,5.7c-2,1.2-4.6,0.5-5.7-1.5
	l-10.5-18.2l7.3-4.2C1417.7,232.4,1415.9,229.2,1416.1,229.5z M1411.3,212.9l-2.1-3.6l3.6-2.1l2.1,3.6L1411.3,212.9z M1452.6,163.4
	l2.9,5l-2.6,3.9l-5-8.7L1452.6,163.4z M1430.6,148.3c0.6-0.9,1.5-1,1.8-1c0.4,0,1.3,0.1,1.8,1l24.4,42.3c0.8,1.4-0.2,3.1-1.8,3.1
	c-0.3,0-0.4,0.1-1.2,0.2l-25.8-44.7C1430.4,148.5,1430.4,148.4,1430.6,148.3z M1427,152.8l24.3,42l-36.6,7.2l-11.1-19.3L1427,152.8z
	 M1380.1,209.1c-0.9-1.6-1.4-3.4-1.4-5.2c0-3.7,2-7.2,5.2-9.1l16.4-9.4l10.5,18.2l-16.4,9.4C1389.4,215.9,1383,214.2,1380.1,209.1z"
	/>
<g>
	<path class="st11" d="M2077.9,592.2l-0.1-0.3c-0.5-1.1-1.5-2.1-2.7-2.6l-0.1-0.1c0,0-0.1,0-0.1-0.1c-0.3-0.1-0.5-0.1-0.8-0.2
		c-0.1,0-0.1-0.1-0.2,0c-0.2,0-0.6,0-0.8,0c-0.1,0-0.1-0.1-0.2,0c-0.3,0-0.7,0.1-0.9,0.2c-0.1,0-0.1,0-0.2,0.1
		c-0.3,0.1-0.7,0.2-1.1,0.4l-62.8,26.7c-0.4,0.2-0.8,0.3-1.1,0.6c-0.1,0-0.2,0.1-0.2,0.2c-0.2,0.2-0.5,0.3-0.7,0.5
		c-0.1,0-0.1,0.1-0.2,0.2c-0.2,0.2-0.4,0.4-0.6,0.6l-0.1,0.1c-0.2,0.2-0.3,0.4-0.4,0.6c-0.1,0.1-0.1,0.3-0.2,0.4
		c-0.4,1.1-0.4,2.1-0.1,3.1c0,0.1,0,0.1,0.1,0.2l18.2,42.8c0,0.1,0,0.1,0.1,0.2c0.8,1.3,1.9,2.1,3.2,2.4c1.1,0.2,2.3,0.1,3.6-0.4
		l63.2-26.9c0,0,0,0,0.1,0l0,0c0.3-0.1,0.7-0.3,0.9-0.5c0.1,0,0.1,0,0.2-0.1c0.2-0.2,0.5-0.3,0.7-0.5h0.1c1.8-1.7,1.9-3.9,1.1-5.6
		l-0.1-0.3v-0.1v-0.1l-17.5-41.2C2077.9,592.3,2077.9,592.3,2077.9,592.2C2077.9,592.3,2077.9,592.3,2077.9,592.2z M2071.1,593.4
		l-17.7,42.4l-9.8-3.8l0,0l-33.4-12.7L2071.1,593.4L2071.1,593.4z M2025.6,662.9l-17-40l31.6,12L2025.6,662.9z M2058.8,651.1
		l-29.1,12.4l14.2-27.2l9.9,3.8c0.4,0.2,0.7,0.1,1.1,0.1h0.1c0.1,0,0.1,0,0.2-0.1l0,0c0.1,0,0.2-0.1,0.2-0.1h0.1
		c0.2-0.2,0.6-0.5,0.7-0.8l3.9-9.3l29.4,8.2L2058.8,651.1L2058.8,651.1z M2091.8,634.8l-30.2-8.6l13.2-31.5L2091.8,634.8z"/>
</g>
<path class="st11" d="M1644.2,297.3c-1.1,0-1.9,0.9-1.9,1.9c0,1.1,0.9,1.9,1.9,1.9c1.1,0,1.9-0.9,1.9-1.9
	C1646.1,298.1,1645.2,297.3,1644.2,297.3z"/>
<path class="st11" d="M1612.6,278.2c1.1,0,1.9-0.9,1.9-1.9s-0.9-1.9-1.9-1.9c-1.1,0-1.9,0.9-1.9,1.9S1611.5,278.2,1612.6,278.2z"/>
<path class="st11" d="M1651.8,285.8h-25.9v-17.1c0-3.1-2.6-5.7-5.7-5.7h-54.5c-3.1,0-5.7,2.6-5.7,5.7v38.1c0,3.1,2.6,5.7,5.7,5.7
	h5.7v9.5c0,1.7,2.1,2.5,3.3,1.3l10.9-10.9h6.1v17.1c0,3.1,2.6,5.7,5.7,5.7h34.6l10.9,10.9c1.2,1.2,3.3,0.4,3.3-1.3v-9.5h5.7
	c3.1,0,5.7-2.6,5.7-5.7v-38.1C1657.5,288.4,1654.9,285.8,1651.8,285.8z M1573.3,289.7h18.6c-0.2,0.6-0.3,1.2-0.3,1.9v5.7h-18.3
	c-1.1,0-1.9,0.9-1.9,1.9c0,1.1,0.9,1.9,1.9,1.9h18.3v7.6h-6.9c-0.5,0-1,0.2-1.3,0.6l-8.2,8.2v-6.8c0-1.1-0.9-1.9-1.9-1.9h-7.6
	c-1.1,0-1.9-0.9-1.9-1.9v-38.1c0-1.1,0.9-1.9,1.9-1.9h54.5c1.1,0,1.9,0.9,1.9,1.9v17.1c-2.7,0-46.1,0-48.7,0c-1.1,0-1.9,0.9-1.9,1.9
	C1571.4,288.8,1572.3,289.7,1573.3,289.7z M1653.7,329.6c0,1.1-0.9,1.9-1.9,1.9h-7.6c-1.1,0-1.9,0.9-1.9,1.9v6.8l-8.2-8.2
	c-0.4-0.4-0.8-0.6-1.3-0.6h-35.4c-1.1,0-1.9-0.9-1.9-1.9v-38.1c0-1.1,0.9-1.9,1.9-1.9h54.5c1.1,0,1.9,0.9,1.9,1.9L1653.7,329.6
	L1653.7,329.6z"/>
<path class="st11" d="M1573.3,278.2h31.6c1.1,0,1.9-0.9,1.9-1.9s-0.9-1.9-1.9-1.9h-31.6c-1.1,0-1.9,0.9-1.9,1.9
	S1572.3,278.2,1573.3,278.2z"/>
<path class="st11" d="M1604.9,301.1h31.6c1.1,0,1.9-0.9,1.9-1.9c0-1.1-0.9-1.9-1.9-1.9h-31.6c-1.1,0-1.9,0.9-1.9,1.9
	S1603.9,301.1,1604.9,301.1z"/>
<path class="st11" d="M1644.2,308.7H1605c-1.1,0-1.9,0.9-1.9,1.9s0.9,1.9,1.9,1.9h39.2c1.1,0,1.9-0.9,1.9-1.9
	S1645.2,308.7,1644.2,308.7z"/>
<path class="st11" d="M1644.2,320.1H1605c-1.1,0-1.9,0.9-1.9,1.9c0,1.1,0.9,1.9,1.9,1.9h39.2c1.1,0,1.9-0.9,1.9-1.9
	S1645.2,320.1,1644.2,320.1z"/>
<path class="st12" d="M1568.4,672.1c0.8,0,1.4-0.6,1.4-1.4s-0.6-1.4-1.4-1.4s-1.4,0.6-1.4,1.4S1567.6,672.1,1568.4,672.1z"/>
<path class="st12" d="M1567.3,708.9c0.8,0.9,2.3,0.6,2.5-0.6l12.4-61.3c0.1-0.4,0-0.9-0.3-1.2l0,0l0,0c-0.4-0.5-0.9-0.5-0.9-0.5
	c-0.2,0-0.4,0-0.6,0.1l-67,21c-1.3,0.4-1.4,2.2-0.1,2.7l21.9,8.2l-2.7,19l0,0c-0.1,1.1,1,2,2.1,1.5l17-8.5L1567.3,708.9z
	 M1567.6,704.7c-0.9-1.2-19.4-24.2-20.3-25.3l31.1-28.6L1567.6,704.7z M1518.2,667.9l53.6-16.8l-35.2,23.7L1518.2,667.9z
	 M1538.1,677.2l27.7-18.6l-21.3,19.6l0,0c0,0,0,0-0.1,0.1c0,0,0,0,0,0.1l0,0c0,0,0,0-0.1,0.1l0,0l-8,12L1538.1,677.2z M1538.1,692.8
	l7.4-11.1l4.2,5.3L1538.1,692.8z"/>
<path class="st12" d="M1564.3,696.4c0.8,0.1,1.5-0.4,1.6-1.2l2.8-18.7c0.1-0.8-0.4-1.5-1.2-1.6c-0.8-0.1-1.5,0.4-1.6,1.2l-2.8,18.7
	C1563,695.6,1563.5,696.3,1564.3,696.4z"/>
<path class="st12" d="M1511.9,718.5c0.6,0.6,1.5,0.6,2,0l9.5-9.5c0.6-0.6,0.6-1.5,0-2c-0.6-0.6-1.5-0.6-2,0l-9.5,9.5
	C1511.3,717.1,1511.3,718,1511.9,718.5z"/>
<path class="st12" d="M1535.7,707l-9.5,9.5c-0.6,0.6-0.6,1.5,0,2c0.6,0.6,1.5,0.6,2,0l9.5-9.5c0.6-0.6,0.6-1.5,0-2
	C1537.2,706.5,1536.3,706.5,1535.7,707z"/>
<path class="st12" d="M1511.9,704.2c0.6,0.6,1.5,0.6,2,0l9.5-9.5c0.6-0.6,0.6-1.5,0-2c-0.6-0.6-1.5-0.6-2,0l-9.5,9.5
	C1511.3,702.7,1511.3,703.6,1511.9,704.2z"/>
<g>
	<g>
		<path class="st3" d="M2097.2,279c-0.6-0.6-1.6-0.6-2.2,0c-0.6,0.6-0.6,1.6,0,2.2s1.6,0.6,2.2,0
			C2097.8,280.7,2097.8,279.7,2097.2,279z"/>
	</g>
</g>
<g>
	<g>
		<path class="st3" d="M2117.4,258.8c-3.1-3.1-8.1-3.1-11.2,0c-3.1,3.1-3.1,8.1,0,11.2s8.1,3.1,11.2,0
			C2120.5,267,2120.5,261.9,2117.4,258.8z M2115.2,267.8c-1.9,1.9-4.9,1.9-6.7,0c-1.9-1.9-1.9-4.9,0-6.7c1.9-1.9,4.9-1.9,6.7,0
			C2117.1,262.9,2117.1,265.9,2115.2,267.8z"/>
	</g>
</g>
<g>
	<g>
		<path class="st3" d="M2135.4,240.9c-0.3-0.3-0.7-0.5-1.2-0.5c-0.4,0-8.9,0.4-19.1,3.9c-8.1,2.9-14.9,7-20.2,12.2
			c-1.2,1.2-2.3,2.4-3.4,3.7c-5.2-3.1-9.3-2.1-12-0.7c-6,3.2-9.8,12-9.8,18.3c0,0.6,0.4,1.2,1,1.5c0.2,0.1,0.4,0.1,0.6,0.1
			c0.4,0,0.8-0.2,1.1-0.5c3.2-3.2,7.1-3,8.4-2.8l0.6,0.6c-1.1,2.6-2,5.2-2.6,7.7c-0.2,0.9-0.2,1.9,0.2,2.8c-1.5,0.7-3,1.7-4.3,3
			c-4.1,4.1-4.9,14.1-5,14.5c0,0.5,0.1,0.9,0.5,1.2c0.3,0.3,0.7,0.5,1.1,0.5h0.1c0.4,0,10.4-0.9,14.5-5c1.3-1.3,2.3-2.8,3-4.3
			c0.9,0.4,1.9,0.4,2.8,0.2c2.5-0.6,5.1-1.5,7.7-2.6l0.6,0.6c0.2,1.3,0.4,5.2-2.8,8.4c-0.5,0.5-0.6,1.1-0.3,1.7c0.2,0.6,0.8,1,1.5,1
			c6.3,0,15.1-3.7,18.3-9.8c1.4-2.6,2.4-6.8-0.7-12c1.3-1.1,2.5-2.2,3.7-3.4c5.2-5.2,9.4-12,12.2-20.2c3.6-10.2,3.9-18.7,3.9-19.1
			C2135.9,241.6,2135.7,241.2,2135.4,240.9z M2073.3,274.5c1-4.8,3.9-10,7.7-12.1c2.6-1.4,5.4-1.3,8.5,0.4c-2.6,3.4-4.8,7-6.7,10.9
			c0,0-0.3-0.4-0.8-0.5C2081.8,273.1,2077.6,272.2,2073.3,274.5z M2083.7,299.3c-2.2,2.2-7.3,3.3-10.5,3.8c0.5-3.2,1.6-8.4,3.8-10.5
			c1.2-1.2,2.6-2.2,4.1-2.7l5.3,5.3C2085.9,296.6,2085,298,2083.7,299.3z M2091,294.3c-0.5,0.1-1-0.1-1.4-0.5
			c-2.1-2.1-2.9-2.9-3.1-3.1c-0.5-0.5-1.6-1.6-4.1-4.1c-0.4-0.4-0.6-0.9-0.5-1.4c0.5-2,1.2-4,2-6.1l13.1,13.1
			C2095,293.2,2093,293.8,2091,294.3z M2113.9,295.2c-2.1,3.9-7.3,6.8-12.1,7.7c1.5-2.9,1.9-6.5,1.3-8.7c-0.1-0.5-0.5-0.8-0.5-0.8
			c3.8-1.9,7.5-4.1,10.9-6.7C2115.1,289.7,2115.2,292.6,2113.9,295.2z M2117.4,279c-1.4,1.4-3,2.8-4.6,4.1
			c-3.9,3.1-8.1,5.8-12.7,7.8l-14.9-14.9c2.1-4.5,4.7-8.8,7.8-12.7c1.3-1.6,2.7-3.2,4.1-4.6c4.7-4.7,10.8-8.5,18.1-11.1l13.3,13.3
			C2125.9,268.3,2122.1,274.3,2117.4,279z M2129.7,257.6l-11.1-11.1c6-1.9,11.3-2.6,13.9-2.8
			C2132.3,246.3,2131.6,251.6,2129.7,257.6z"/>
	</g>
</g>
<g>
	<g>
		<path class="st3" d="M2092.7,306c-0.6-0.6-1.6-0.6-2.2,0l-4.5,4.5c-0.6,0.6-0.6,1.6,0,2.2s1.6,0.6,2.2,0l4.5-4.5
			C2093.3,307.6,2093.3,306.6,2092.7,306z"/>
	</g>
</g>
<g>
	<g>
		<path class="st3" d="M2070.3,283.5c-0.6-0.6-1.6-0.6-2.2,0l-4.5,4.5c-0.6,0.6-0.6,1.6,0,2.2s1.6,0.6,2.2,0l4.5-4.5
			C2070.9,285.2,2070.9,284.2,2070.3,283.5z"/>
	</g>
</g>
<g>
	<g>
		<path class="st3" d="M2081.5,308.2c-0.6-0.6-1.6-0.6-2.2,0l-10.8,10.8c-0.6,0.6-0.6,1.6,0,2.2s1.6,0.6,2.2,0l10.8-10.8
			C2082.1,309.9,2082.1,308.9,2081.5,308.2z"/>
	</g>
</g>
<g>
	<g>
		<path class="st3" d="M2068.8,308.2c-0.6-0.6-1.6-0.6-2.2,0l-10.8,10.8c-0.6,0.6-0.6,1.6,0,2.2s1.6,0.6,2.2,0l10.8-10.8
			C2069.4,309.9,2069.4,308.9,2068.8,308.2z"/>
	</g>
</g>
<g>
	<g>
		<path class="st3" d="M2068,294.8c-0.6-0.6-1.6-0.6-2.2,0l-10.8,10.8c-0.6,0.6-0.6,1.6,0,2.2s1.6,0.6,2.2,0L2068,297
			C2068.6,296.4,2068.6,295.4,2068,294.8z"/>
	</g>
</g>
<g>
	<g>
		<path class="st3" d="M2104,272.3c-0.6-0.6-1.6-0.6-2.2,0l-2.2,2.2c-0.6,0.6-0.6,1.6,0,2.2s1.6,0.6,2.2,0l2.2-2.2
			C2104.6,273.9,2104.6,272.9,2104,272.3z"/>
	</g>
</g>
<g>
	<g>
		<path class="st13" d="M2258.9,512.1l-14.4-14.4c5.8-8.7,4.8-20.6-2.8-28.3c-8.8-8.8-23-8.8-31.7,0c-3.6,3.6-5.9,8.5-6.5,13.6
			c-0.5,5,0.7,10.2,3.4,14.4c0.3,0.5,1,0.7,1.5,0.3c0.5-0.3,0.7-1,0.3-1.5c-5.1-7.9-4-18.5,2.7-25.2c7.9-7.9,20.7-7.9,28.6,0
			c7.9,7.9,7.9,20.7,0,28.6c-6.7,6.7-17,7.9-25,2.9c-0.5-0.3-1.2-0.2-1.5,0.4c-0.3,0.5-0.2,1.2,0.4,1.5c3.5,2.2,7.7,3.4,11.9,3.4
			c0.8,0,1.6,0,2.4-0.1c3.6-0.4,7-1.6,9.9-3.6l14.4,14.4c0.9,0.9,2,1.3,3.1,1.3s2.3-0.4,3.2-1.3
			C2260.6,516.7,2260.7,513.9,2258.9,512.1z M2240,502.7c0.6-0.5,1.1-1,1.7-1.5c0.5-0.5,1-1.1,1.5-1.7l2.8,2.8l-3.2,3.2L2240,502.7z
			 M2257.3,516.9c-0.9,0.9-2.3,0.9-3.2,0l-9.8-9.8l3.2-3.2l9.8,9.8C2258.2,514.6,2258.2,516,2257.3,516.9z"/>
	</g>
</g>
<g>
	<g>
		<path class="st13" d="M2211.5,499.6L2211.5,499.6c-0.5-0.5-1.2-0.5-1.6,0c-0.4,0.4-0.4,1.1,0,1.6l0,0c0.2,0.2,0.5,0.3,0.8,0.3
			s0.6-0.1,0.8-0.3C2211.9,500.7,2211.9,500,2211.5,499.6z"/>
	</g>
</g>
<g>
	<g>
		<path class="st13" d="M2225.8,468.2c-9.4,0-17.1,7.7-17.1,17.1s7.7,17.1,17.1,17.1s17.1-7.7,17.1-17.1
			C2242.9,475.8,2235.2,468.2,2225.8,468.2z M2225.8,500.2c-5.4,0-10.1-2.9-12.7-7.1l6.6-6.6l5.3,5.3c0.2,0.2,0.5,0.3,0.8,0.3
			s0.6-0.1,0.8-0.3l8.3-8.3v0.3c0,0.6,0.5,1.1,1.1,1.1s1.1-0.5,1.1-1.1v-3c0-0.6-0.5-1.1-1.1-1.1h-3c-0.6,0-1.1,0.5-1.1,1.1
			s0.5,1.1,1.1,1.1h0.3l-7.5,7.5l-5.3-5.3c-0.2-0.2-0.5-0.3-0.8-0.3s-0.6,0.1-0.8,0.3l-6.8,6.8c-0.7-1.7-1.1-3.7-1.1-5.7
			c0-8.2,6.7-14.9,14.9-14.9s14.9,6.7,14.9,14.9C2240.7,493.5,2234,500.2,2225.8,500.2z"/>
	</g>
</g>
<path class="st10" d="M1884.6,218.5c0.8-0.3,1.2-1.3,0.9-2.1c-0.3-0.8-1.3-1.2-2.1-0.9c-0.8,0.3-1.2,1.3-0.9,2.1
	S1883.8,218.8,1884.6,218.5z"/>
<path class="st10" d="M1837.9,178.1c4.8,11.4,16.7,18.2,28.8,16.7c0.3,0,0.7,0,1,0.2c2.1,1.2,4.3,2.1,6.6,2.8
	c1.3,0.4,2.4,1.4,2.9,2.8l3.1,7.4c0.3,0.8-0.1,1.8-0.9,2.1l-1.5,0.6c-2.5,1-3.6,3.9-2.6,6.3l3.8,8.9c0.3,0.8,0,1.8-0.9,2.1l0,0
	c-2.5,1-3.6,3.9-2.6,6.3l1.2,3c0.3,0.8,1.3,1.2,2.1,0.9l35.8-15c0.8-0.3,1.2-1.3,0.9-2.1l-1.2-3c-1-2.5-3.9-3.6-6.3-2.6l-0.1,0
	c-0.8,0.3-1.7-0.1-2-0.9l-3.8-9c-1-2.5-3.9-3.6-6.3-2.6l-1.5,0.6c-0.8,0.3-1.7-0.1-2.1-0.9l-3.1-7.5c-0.6-1.4-0.6-2.9,0-4.1
	c1.1-2.1,2-4.4,2.6-6.6c0.1-0.3,0.3-0.6,0.5-0.8c9.6-7.6,13.1-20.6,8.3-32.2l-1.2-3c-1-2.5-3.9-3.6-6.3-2.6l-6,2.5
	c-0.8,0.3-1.7-0.1-2.1-0.9l0,0c-0.3-0.8-1.3-1.2-2.1-0.9l-35.8,15c-0.8,0.3-1.2,1.3-0.9,2.1l0,0c0.3,0.8-0.1,1.7-0.9,2.1l-6.1,2.5
	c-2.5,1-3.6,3.9-2.6,6.3L1837.9,178.1z M1909.2,218.7c0.8-0.3,1.8,0,2.1,0.9l0,0.1c0.3,0.8-0.1,1.7-0.9,2l-29.9,12.5
	c-0.8,0.3-1.8-0.1-2.1-0.9l0,0c-0.3-0.8,0-1.8,0.9-2.1L1909.2,218.7z M1897,206.3c0.8-0.3,1.8,0,2.1,0.9l3.8,8.9
	c0.3,0.8,0,1.7-0.8,2.1l-18,7.5c-0.8,0.3-1.7,0-2.1-0.8l-3.8-8.9c-0.3-0.8,0-1.8,0.9-2.1L1897,206.3z M1890.2,160.7l-2.9-6.8
	c-0.3-0.8,0-1.7,0.9-2.1l6-2.5c0.8-0.3,1.8,0,2.1,0.9l1.2,3c3.1,7.3,2.4,15.4-1.5,21.8c-0.8,1.4-2.9,0.8-2.9-0.8
	C1893,169.6,1892,165,1890.2,160.7z M1851.2,163.8l29.9-12.5c0.8-0.3,1.7,0,2.1,0.9l4.1,9.8c2.8,6.7,3.4,14,1.6,21
	c-0.6,2.4-1.5,4.8-2.6,7c-1,2-1.1,4.5-0.1,6.8l3.1,7.4c0.3,0.8,0,1.7-0.9,2.1l-3.1,1.3c-0.8,0.3-1.7,0-2.1-0.9l-3.1-7.4
	c-1-2.3-2.8-4-4.9-4.7c-2.4-0.8-4.7-1.8-6.9-3.1c-6.3-3.7-11.1-9.2-13.9-15.9l-4.1-9.7C1850,165,1850.3,164.1,1851.2,163.8z
	 M1839.6,173.9c-0.3-0.8,0-1.8,0.9-2.1l6-2.5c0.8-0.3,1.7,0,2.1,0.8l2.9,6.9c1.8,4.3,4.4,8.2,7.6,11.5c1.1,1.1,0,3-1.5,2.6
	c-7.3-1.8-13.6-6.9-16.7-14.2L1839.6,173.9z"/>
<path class="st10" d="M1890.6,216l6-2.5c0.8-0.3,1.2-1.3,0.9-2.1c-0.3-0.8-1.3-1.2-2.1-0.9l-6,2.5c-0.8,0.3-1.2,1.3-0.9,2.1
	C1888.8,216,1889.8,216.3,1890.6,216z"/>
<path class="st10" d="M1869.2,175.3l1.1,4.6c0.1,0.6,0.6,1.1,1.2,1.2c0.6,0.1,1.2-0.1,1.6-0.5l3-3.7l4.8,0.4
	c0.6,0.1,1.2-0.2,1.5-0.8c0.3-0.5,0.3-1.2,0-1.7l-2.6-4l1.9-4.4c0.2-0.6,0.1-1.2-0.3-1.7s-1-0.7-1.6-0.5l-4.6,1.2l-3.6-3.1
	c-0.5-0.4-1.1-0.5-1.7-0.3s-1,0.8-1,1.4l-0.3,4.8l-4.1,2.5c-0.5,0.3-0.8,0.9-0.8,1.5c0.1,0.6,0.4,1.1,1,1.4L1869.2,175.3z
	 M1871,170.6c0.5-0.3,0.7-0.8,0.8-1.3l0.1-2.3l1.8,1.5c0.4,0.3,0.9,0.5,1.5,0.3l2.3-0.6l-0.9,2.2c-0.2,0.5-0.2,1.1,0.1,1.5l1.3,2
	l-2.3-0.2c-0.5,0-1,0.2-1.4,0.6l-1.5,1.8l-0.5-2.3c-0.1-0.5-0.5-0.9-1-1.1l-2.2-0.9L1871,170.6z"/>
</svg>
