<?xml version="1.0"?>
<svg xmlns="http://www.w3.org/2000/svg" height="512px" viewBox="-9 0 512 512.0004" width="512px" class=""><g><path d="m292.226562 373.921875 7.535157 12.644531 2.941406 4.933594c16.683594 27.996094 7.480469 64.34375-20.507813 81.035156l-39.683593 23.652344c-27.996094 16.683594-64.34375 7.480469-81.027344-20.515625l-1.0625-1.792969-9.417969-15.78125c-6.300781-10.570312-2.835937-24.25 7.730469-30.542968 10.570313-6.296876 24.242187-2.84375 30.539063 7.730468l8.898437 14.9375 1.578125 2.640625c4.109375 6.898438 13.058594 9.152344 19.949219 5.050781l39.683593-23.652343c6.898438-4.109375 9.167969-13.058594 5.058594-19.957031l-2.433594-4.078126-8.050781-13.496093c-6.296875-10.570313-2.828125-24.238281 7.730469-30.539063 10.570312-6.300781 24.246094-2.835937 30.539062 7.730469zm0 0" fill="#ffc843" data-original="#FFC843" class="" style="fill:#04D2C8" data-old_color="#04d2c8"/><path d="m189.273438 435.285156 8.898437 14.941406-37.75 23.652344-9.417969-15.78125c-6.300781-10.570312-2.835937-24.246094 7.726563-30.542968 10.574219-6.296876 24.242187-2.839844 30.542969 7.730468zm0 0" fill="#ffb400" data-original="#FFB400" class="active-path" style="fill:#04D2C8" data-old_color="#04d2c8"/><path d="m292.226562 373.921875 7.535157 12.644531-37.757813 23.660156-8.046875-13.496093c-6.300781-10.570313-2.828125-24.238281 7.730469-30.539063 10.570312-6.300781 24.246094-2.835937 30.539062 7.730469zm0 0" fill="#ffb400" data-original="#FFB400" class="active-path" style="fill:#04D2C8" data-old_color="#04d2c8"/><path d="m242.882812 7.5 244.199219 244.199219-18.144531 11.152343-16.042969 9.863282-32.097656 19.71875-316.683594 194.652344-96.617187-96.617188 194.652344-316.683594 19.71875-32.097656 9.863281-16.042969zm0 0" fill="#76ffd9" data-original="#76FFD9" class="" style="fill:#4582FF" data-old_color="#4582ff"/><path d="m242.882812 7.5 244.199219 244.199219-18.144531 11.152343-237.207031-237.207031zm0 0" fill="#fff" data-original="#FFF" class=""/><path d="m221.867188 41.6875 231.027343 231.027344-32.097656 19.71875-218.648437-218.648438zm0 0" fill="#fff" data-original="#FFF" class=""/><path d="m103.078125 356.703125-21.539063-21.535156 140.363282-140.363281 21.535156 21.539062zm0 0" fill="#fff" data-original="#FFF" class=""/><path d="m160.414062 414.042969-57.339843-57.339844 46.050781-46.046875 57.339844 57.335938zm0 0" fill="#ffc843" data-original="#FFC843" class="" style="fill:#04D2C8" data-old_color="#04d2c8"/><g fill="#434c54"><path d="m248.183594 2.199219c-1.621094-1.621094-3.898438-2.421875-6.179688-2.1445315-2.277344.2656245-4.3125 1.5625005-5.511718 3.5195315l-20.882813 33.972656c-.019531.03125-.035156.0625-.054687.089844l-165.386719 269.085937c-2.167969 3.53125-1.066407 8.148438 2.464843 10.316406 3.527344 2.171876 8.148438 1.070313 10.316407-2.460937l140.605469-228.769531 205.21875 205.21875-49.851563 30.636718c-3.527344 2.167969-4.632813 6.789063-2.460937 10.316407 1.414062 2.304687 3.875 3.574219 6.394531 3.574219 1.339843 0 2.695312-.359376 3.921875-1.109376l124.230468-76.355468c1.953126-1.199219 3.253907-3.230469 3.519532-5.511719.269531-2.28125-.519532-4.558594-2.144532-6.179687zm205.820312 261.027343-124.199218-124.203124c-2.925782-2.929688-7.675782-2.933594-10.605469-.003907-2.929688 2.929688-2.929688 7.679688 0 10.605469l121.667969 121.675781-18.953126 11.648438-210.28125-210.28125 11.648438-18.953125 76.648438 76.648437c1.464843 1.464844 3.382812 2.195313 5.304687 2.195313 1.917969 0 3.839844-.730469 5.304687-2.195313 2.925782-2.929687 2.925782-7.679687 0-10.609375l-79.179687-79.179687 12.9375-21.050781 230.761719 230.761718zm0 0" data-original="#000000" class="" style="fill:#000000"/><path d="m335.179688 336.257812-229.949219 141.335938-.976563-.976562-.347656-23.695313c-.03125-1.949219-.816406-3.8125-2.195312-5.191406l-54.292969-54.292969c-1.378907-1.378906-3.242188-2.164062-5.191407-2.191406l-23.695312-.351563-1.539062-1.539062 30.613281-49.8125c2.167969-3.527344 1.066406-8.148438-2.460938-10.316407-3.527343-2.171874-8.148437-1.066406-10.316406 2.460938l-33.71875 54.855469c-1.816406 2.957031-1.367187 6.773437 1.085937 9.230469l96.613282 96.613281c1.445312 1.445312 3.367187 2.195312 5.308594 2.195312 1.347656 0 2.707031-.363281 3.921874-1.109375l40.480469-24.878906 6.515625 10.921875c12.445313 20.882813 34.609375 32.484375 57.324219 32.484375 11.589844 0 23.328125-3.019531 33.988281-9.371094l39.683594-23.652344c31.546875-18.804687 41.917969-59.765624 23.121094-91.3125l-7.765625-13.027343 41.648437-25.597657c3.527344-2.167968 4.628906-6.789062 2.460938-10.316406-2.167969-3.53125-6.789063-4.632812-10.316406-2.464844zm-296.21875 69.9375 49.992187 49.988282.074219 5.207031-55.269532-55.269531zm219.039062 11.960938c.957031 1.609375 1.234375 3.503906.769531 5.335938-.464843 1.828124-1.605469 3.367187-3.21875 4.328124l-39.691406 23.652344c-3.339844 1.988282-7.675781.890625-9.667969-2.449218l-6.925781-11.621094 51.382813-31.578125zm38.269531-22.8125c14.5625 24.441406 6.523438 56.179688-17.917969 70.75l-39.679687 23.648438c-24.445313 14.5625-56.1875 6.53125-70.75-17.910157l-6.621094-11.09375 25.179688-15.476562 6.828125 11.445312c4.125 6.914063 11.464844 10.757813 18.980468 10.753907 3.839844 0 7.722657-1 11.25-3.101563l39.691407-23.652344c5.054687-3.011719 8.632812-7.820312 10.078125-13.53125 1.449218-5.71875.585937-11.648437-2.425782-16.703125l-7.457031-12.503906 25.179688-15.476562zm0 0" data-original="#000000" class="" style="fill:#000000"/><path d="m172.355469 343.121094-24.339844 24.339844c-2.988281 2.988281-3.15625 8.046874-.097656 10.964843 1.445312 1.378907 3.308593 2.066407 5.171875 2.066407 1.917968 0 3.839844-.730469 5.304687-2.195313l24.566407-24.566406c2.929687-2.929688 2.929687-7.679688 0-10.609375-2.929688-2.925782-7.679688-2.925782-10.605469 0zm0 0" data-original="#000000" class="" style="fill:#000000"/><path d="m167.210938 327.375c-2.929688-2.929688-7.679688-2.929688-10.605469 0l-24.566407 24.566406c-2.929687 2.929688-2.929687 7.675782 0 10.605469 1.464844 1.464844 3.382813 2.195313 5.300782 2.195313 1.921875 0 3.839844-.730469 5.304687-2.195313l24.570313-24.566406c2.925781-2.929688 2.925781-7.675781-.003906-10.605469zm0 0" data-original="#000000" class="" style="fill:#000000"/></g><path d="m402.484375 99.761719c1.917969 0 3.839844-.730469 5.304687-2.195313l26.804688-26.804687c2.929688-2.929688 2.929688-7.675781 0-10.605469s-7.679688-2.929688-10.609375 0l-26.804687 26.804688c-2.925782 2.929687-2.925782 7.675781 0 10.605468 1.464843 1.464844 3.386718 2.195313 5.304687 2.195313zm0 0" fill="#ffc843" data-original="#FFC843" class="" style="fill:#04D2C8" data-old_color="#04d2c8"/><path d="m329.042969 61.703125c4.144531 0 7.5-3.355469 7.5-7.5v-37.511719c0-4.144531-3.355469-7.5-7.5-7.5s-7.5 3.355469-7.5 7.5v37.511719c0 4.144531 3.355469 7.5 7.5 7.5zm0 0" fill="#ffc843" data-original="#FFC843" class="" style="fill:#04D2C8" data-old_color="#04d2c8"/><path d="m433.042969 165.703125c0 4.144531 3.359375 7.503906 7.5 7.503906h37.511719c4.144531 0 7.5-3.359375 7.5-7.503906 0-4.140625-3.355469-7.5-7.5-7.5h-37.511719c-4.140625 0-7.5 3.359375-7.5 7.5zm0 0" fill="#ffc843" data-original="#FFC843" class="" style="fill:#04D2C8" data-old_color="#04d2c8"/></g> </svg>
