<?xml version="1.0"?>
<svg xmlns="http://www.w3.org/2000/svg" height="512px" viewBox="-11 0 512 512.001" width="512px" class=""><g><path d="m296.449219 89.878906v315.191406h-288.949219v-382.070312h222.070312zm0 0" fill="#fff" data-original="#FFF" class=""/><path d="m296.449219 111.828125v246.582031c-57.949219 39.390625-137.527344 33.390625-188.898438-17.980468-58.160156-58.160157-58.160156-152.460938 0-210.621094 51.371094-51.367188 130.949219-57.367188 188.898438-17.980469zm0 0" fill="#e1eaf8" data-original="#E1EAF8" class=""/><path d="m296.457031 89.882812v315.1875h-26v-341.1875zm0 0" fill="#fff" data-original="#FFF" class=""/><path d="m230.082031 89.371094 66.375.511718-66.882812-66.886718zm0 0" fill="#e1eaf8" data-original="#E1EAF8" class=""/><path d="m174.191406 48.492188h-35.320312l-4.613282-40.992188h44.546876zm0 0" fill="#ffc843" data-original="#FFC843" class="active-path" style="fill:#04D2C8" data-old_color="#04d2c8"/><path d="m281.011719 319.402344 16.125-16.125 46.273437 46.273437-16.125 16.125zm0 0" fill="#5de0bf" data-original="#5DE0BF" class="" style="fill:#04D2C8" data-old_color="#04d2c8"/><path d="m341.046875 235.121094c0 70.796875-57.390625 128.1875-128.1875 128.1875s-128.1875-57.390625-128.1875-128.1875 57.390625-128.191406 128.1875-128.191406 128.1875 57.394531 128.1875 128.191406zm0 0" fill="#76ffd9" data-original="#76FFD9" class="" style="fill:#4582FF" data-old_color="#4582ff"/><path d="m311.535156 235.121094c0 54.496094-44.179687 98.675781-98.675781 98.675781s-98.675781-44.179687-98.675781-98.675781 44.179687-98.675782 98.675781-98.675782 98.675781 44.179688 98.675781 98.675782zm0 0" fill="#fff" data-original="#FFF" class=""/><path d="m477.648438 482.296875-17.613282 17.609375c-6.125 6.125-16.054687 6.125-22.179687 0l-122.269531-122.269531c-6.125-6.125-6.125-16.054688 0-22.179688l17.609374-17.609375c6.125-6.125 16.054688-6.125 22.179688 0l122.273438 122.269532c6.125 6.125 6.125 16.054687 0 22.179687zm0 0" fill="#76ffd9" data-original="#76FFD9" class="" style="fill:#4582FF" data-old_color="#4582ff"/><path d="m355.371094 337.847656 122.269531 122.269532c6.128906 6.128906 6.128906 16.058593.007813 22.179687l-11.832032 11.832031c6.125-6.121094 6.125-16.050781-.003906-22.179687l-122.269531-122.269531c-6.125-6.125-16.050781-6.125-22.175781 0l11.832031-11.832032c6.121093-6.125 16.050781-6.125 22.171875 0zm0 0" fill="#5de0bf" data-original="#5DE0BF" class="" style="fill:#04D2C8" data-old_color="#04d2c8"/><path d="m395.394531 457.449219 39.789063-39.789063 16.242187 16.246094-39.785156 39.785156zm0 0" fill="#ffc843" data-original="#FFC843" class="active-path" style="fill:#04D2C8" data-old_color="#04d2c8"/><path d="m482.949219 454.8125-76.699219-76.699219c-2.929688-2.929687-7.679688-2.929687-10.609375 0-2.925781 2.925781-2.925781 7.675781 0 10.605469l14.59375 14.589844-29.183594 29.183594-60.160156-60.160157c-3.191406-3.191406-3.191406-8.382812 0-11.574219l.660156-.660156c.027344-.027344.054688-.046875.082031-.074218.027344-.023438.046876-.054688.074219-.078126l15.984375-15.984374c.023438-.023438.050782-.042969.074219-.066407.023437-.027343.042969-.050781.070313-.078125l.664062-.667968c1.546875-1.542969 3.601562-2.394532 5.789062-2.394532 2.183594 0 4.238282.851563 5.785157 2.394532l23.625 23.625c2.925781 2.929687 7.675781 2.929687 10.605469 0 2.929687-2.925782 2.929687-7.675782 0-10.605469l-23.625-23.625c-4.378907-4.378907-10.199219-6.789063-16.394532-6.789063-3.976562 0-7.792968 1.007813-11.179687 2.878906l-11.859375-11.855468c17.710937-23.40625 27.300781-51.792969 27.300781-81.65625 0-36.242188-14.113281-70.316406-39.742187-95.945313-1.582032-1.585937-3.207032-3.105469-4.855469-4.601562v-44.550781c0-.027344.007812-.054688.007812-.085938.015625-2.089844-.828125-3.984375-2.199219-5.355469 0-.003906-.003906-.003906-.003906-.007812l-66.867187-66.867188c-1.359375-1.363281-3.238281-2.210937-5.3125-2.210937h-.058594c-.007813 0-.015625.003906-.023437.003906h-44.039063l.804687-7.164062c.238282-2.121094-.4375-4.242188-1.859374-5.835938-1.425782-1.589844-3.457032-2.5-5.59375-2.5h-44.546876c-2.136718 0-4.167968.910156-5.59375 2.503906-1.421874 1.589844-2.097656 3.714844-1.859374 5.835938l.804687 7.160156h-120.109375c-4.140625 0-7.5 3.359375-7.5 7.5v46.671875c0 4.140625 3.359375 7.5 7.5 7.5 4.144531 0 7.5-3.359375 7.5-7.5v-39.171875h114.296875l2.121094 18.828125c.425781 3.792969 3.632812 6.664063 7.453125 6.664063h35.320312c3.816406 0 7.027344-2.871094 7.453125-6.664063l2.121094-18.828125h38.363281l.453125 58.929688c.03125 4.097656 3.34375 7.410156 7.441407 7.441406l58.925781.453125v25.457031c-33.378907-22.632812-75.519531-29.484375-115.082031-17.652344-3.96875 1.1875-6.226563 5.363282-5.039063 9.332032s5.371094 6.222656 9.335937 5.039062c42.617188-12.746094 88.613282-1.144531 120.035157 30.277344 22.796875 22.796875 35.351562 53.105468 35.351562 85.339844 0 28.601562-9.890625 55.679687-28.039062 77.34375-4.722657 5.515624-9.796875 10.574218-15.304688 15.304687-21.664062 18.152344-48.742187 28.042969-77.347656 28.042969-32.234375 0-62.542969-12.554688-85.339844-35.347656-47.054687-47.058594-47.054687-123.625 0-170.683594 7.011719-7.007813 14.832031-13.128906 23.242188-18.183594 3.550781-2.132812 4.699219-6.738281 2.566406-10.289062-2.132813-3.554688-6.742187-4.699219-10.292969-2.566407-9.457031 5.683594-18.246094 12.558594-26.121094 20.433594-52.90625 52.90625-52.90625 138.988281 0 191.894531 25.628907 25.628906 59.703126 39.742188 95.945313 39.742188 27.535156 0 53.8125-8.152344 76.089844-23.304688v50.066406h-273.949219v-296.890624c0-4.140626-3.355469-7.5-7.5-7.5-4.140625 0-7.5 3.359374-7.5 7.5v304.390624c0 4.140626 3.359375 7.5 7.5 7.5h288.949219c4.144531 0 7.5-3.359374 7.5-7.5v-34c.859375 4.351563 2.96875 8.503907 6.332031 11.867188l96.058594 96.058594s0 0 .003906.003906l26.210938 26.210938c4.378906 4.378906 10.199218 6.789062 16.394531 6.789062 6.191406 0 12.011719-2.410156 16.390625-6.789062l17.609375-17.609376c4.378906-4.378906 6.792969-10.203124 6.792969-16.394531 0-6.191406-2.414063-12.015625-6.792969-16.394531zm-313.347657-432.582031s0 .003906-.003906.003906l-2.109375 18.753906h-21.914062l-2.925781-25.988281h27.765624zm67.921876 59.699219-.3125-40.679688 40.992187 40.992188zm66.425781 280.089843v-9.078125l2.429687 2.429688c-1.15625 2.105468-1.972656 4.347656-2.429687 6.648437zm2.058593-28.238281c.941407-.890625 1.878907-1.792969 2.796876-2.714844.921874-.921875 1.824218-1.855468 2.71875-2.800781l10.324218 10.320313-5.519531 5.519531zm166.335938 143.210938-17.609375 17.609374c-3.1875 3.191407-8.382813 3.191407-11.570313 0l-51.507812-51.503906 29.183594-29.183594 51.503906 51.507813c3.191406 3.1875 3.191406 8.382813 0 11.570313zm0 0" fill="#434c54" data-original="#434C54" class=""/><g fill="#969ba1"><path d="m151.976562 216.15625h56.894532c4.140625 0 7.5-3.355469 7.5-7.5 0-4.140625-3.359375-7.5-7.5-7.5h-56.894532c-4.140624 0-7.5 3.359375-7.5 7.5 0 4.144531 3.359376 7.5 7.5 7.5zm0 0" data-original="#000000" class="" style="fill:#000000"/><path d="m151.976562 247.5h129.039063c4.144531 0 7.5-3.359375 7.5-7.5s-3.355469-7.5-7.5-7.5h-129.039063c-4.140624 0-7.5 3.359375-7.5 7.5s3.359376 7.5 7.5 7.5zm0 0" data-original="#000000" class="" style="fill:#000000"/><path d="m281.015625 255.5h-129.039063c-4.140624 0-7.5 3.359375-7.5 7.5s3.359376 7.5 7.5 7.5h129.039063c4.144531 0 7.5-3.359375 7.5-7.5s-3.355469-7.5-7.5-7.5zm0 0" data-original="#000000" class="" style="fill:#000000"/></g></g> </svg>
