<?xml version="1.0"?>
<svg xmlns="http://www.w3.org/2000/svg" height="512px" viewBox="-14 0 512 512.00112" width="512px" class=""><g><path d="m396.449219 345.027344v159.460937h-308.683594v-159.460937c0-20.71875 12.539063-38.519532 30.4375-46.210938 6.089844-2.621094 12.800781-4.070312 19.839844-4.070312h208.125c7.039062 0 13.75 1.449218 19.839843 4.070312 17.898438 7.691406 30.441407 25.492188 30.441407 46.210938zm0 0" fill="#76ffd9" data-original="#76FFD9" class="" style="fill:#4582FF" data-old_color="#4582ff"/><path d="m396.449219 345.027344v38.25l-26.179688 9.3125c-6.59375 2.347656-13.492187-2.660156-13.300781-9.660156l.847656-30.722657c.0625-2.289062-.667968-4.539062-2.058594-6.347656l-18.742187-24.363281c-4.269531-5.546875-1.636719-13.648438 5.070313-15.628906l23.921874-7.050782c17.898438 7.691406 30.441407 25.492188 30.441407 46.210938zm0 0" fill="#5de0bf" data-original="#5DE0BF" class="" style="fill:#4582FF" data-old_color="#4582ff"/><path d="m147.195312 321.496094-18.742187 24.363281c-1.390625 1.808594-2.117187 4.058594-2.058594 6.347656l.851563 30.722657c.1875 7-6.710938 12.007812-13.300782 9.660156l-26.179687-9.3125v-38.25c0-20.71875 12.539063-38.519532 30.4375-46.210938l23.921875 7.050782c6.710938 1.980468 9.339844 10.082031 5.070312 15.628906zm0 0" fill="#5de0bf" data-original="#5DE0BF" class="" style="fill:#4582FF" data-old_color="#4582ff"/><path d="m334.230469 294.742188c-24.640625 21.46875-56.867188 34.472656-92.125 34.472656-35.257813 0-67.484375-13-92.121094-34.472656zm0 0" fill="#5de0bf" data-original="#5DE0BF" class="" style="fill:#4582FF" data-old_color="#4582ff"/><path d="m393.539062 185.40625c0 19.050781-15.445312 34.496094-34.496093 34.496094s-34.496094-15.445313-34.496094-34.496094 15.445313-34.496094 34.496094-34.496094 34.496093 15.445313 34.496093 34.496094zm0 0" fill="#e1eaf8" data-original="#E1EAF8" class=""/><path d="m159.664062 185.40625c0 19.050781-15.445312 34.496094-34.496093 34.496094s-34.496094-15.445313-34.496094-34.496094 15.445313-34.496094 34.496094-34.496094 34.496093 15.445313 34.496093 34.496094zm0 0" fill="#e1eaf8" data-original="#E1EAF8" class=""/><path d="m359.042969 188.890625c0 6.738281-.574219 13.34375-1.671875 19.761719-9.378906 55.171875-57.417969 97.175781-115.265625 97.175781-60.257813 0-109.875-45.582031-116.234375-104.144531-.46875-4.199219-.703125-8.464844-.703125-12.792969 0-64.574219 52.351562-116.9375 116.9375-116.9375 9.578125 0 18.882812 1.144531 27.796875 3.332031 29.28125 7.132813 54.246094 25.304688 70.242187 49.851563 11.953125 18.335937 18.898438 40.238281 18.898438 63.753906zm0 0" fill="#fff" data-original="#FFF" class=""/><path d="m340.144531 125.136719c-15.996093-24.546875-40.960937-42.71875-70.242187-49.851563-8.914063-2.1875-18.21875-3.332031-27.796875-3.332031-64.585938 0-116.9375 52.363281-116.9375 116.9375 0 4.328125.234375 8.59375.703125 12.792969 0 0 9.304687-24.449219 31.164062-39.957032 9.929688-7.046874 21.199219-11.601562 42.199219-11.601562 6.574219 0 13.671875.316406 21.191406.644531 8.710938.386719 17.726563.785157 27.386719.785157 15.457031 0 28.695312-1.03125 41.664062-3.230469 12.007813-2.03125 22.429688-5.203125 31.269532-9.492188 25.726562 18.21875 36.625 69.824219 36.625 69.824219 1.097656-6.421875 1.671875-13.027344 1.671875-19.761719 0-23.519531-6.945313-45.421875-18.898438-63.757812zm0 0" fill="#e1eaf8" data-original="#E1EAF8" class=""/><path d="m332.894531 43.546875s47.199219 18.488281 48.367188 76.957031-22.21875 68.394532-22.21875 68.394532-8.023438-66.054688-51.371094-80.085938-10.285156-80.246094 25.222656-65.265625zm0 0" fill="#76ffd9" data-original="#76FFD9" class="" style="fill:#4582FF" data-old_color="#4582ff"/><path d="m286.542969 131.03125c-61.976563 10.523438-111.09375-12.863281-140.328125 19.878906-28.742188 32.179688-21.316406 47.417969-21.058594 47.933594-.632812-.644531-23.296875-24.183594-17.53125-81.847656.09375-.898438.1875-1.800782.292969-2.6875 6.351562-56.503906 31.597656-79.261719 51.746093-85.015625l-5.261718-18.710938s29.335937 8.1875 62.023437 0c24.707031-6.183593 80.160157-4.804687 106.785157 20.300781 8.621093 8.105469 14.210937 18.699219 14.78125 32.320313.785156 18.550781 10.527343 57.300781-51.449219 67.828125zm0 0" fill="#76ffd9" data-original="#76FFD9" class="" style="fill:#4582FF" data-old_color="#4582ff"/><path d="m286.542969 131.03125c-61.976563 10.523438-111.09375-12.863281-140.328125 19.878906-28.742188 32.179688-21.316406 47.417969-21.058594 47.933594-.632812-.644531-23.296875-24.183594-17.53125-81.847656.09375-.898438.1875-1.800782.292969-2.6875 2.492187 6.746094 8.6875 21.164062 17.25 25.292968 0 0 13.644531-31.175781 43.265625-32.742187l-8.769532-14.804687s122.585938 44.4375 156.894532-9.355469c12.078125-18.945313 11.925781-36.730469 6.652344-51.816407 8.621093 8.105469 14.210937 18.699219 14.78125 32.324219.785156 18.546875 10.527343 57.296875-51.449219 67.824219zm0 0" fill="#5de0bf" data-original="#5DE0BF" class="" style="fill:#4582FF" data-old_color="#4582ff"/><path d="m238.765625 453.125-34.96875 12.433594c-6.59375 2.347656-13.492187-2.664063-13.296875-9.660156l1.019531-37.101563c.0625-2.292969-.667969-4.53125-2.0625-6.351563l-22.632812-29.414062c-4.269531-5.546875-1.636719-13.652344 5.078125-15.632812l35.601562-10.496094c2.199219-.644532 4.105469-2.03125 5.402344-3.921875l20.980469-30.613281c3.957031-5.777344 12.480469-5.777344 16.4375 0l20.980469 30.613281c1.296874 1.890625 3.203124 3.277343 5.402343 3.921875l35.601563 10.496094c6.714844 1.980468 9.347656 10.085937 5.078125 15.632812l-22.632813 29.414062c-1.398437 1.816407-2.125 4.058594-2.0625 6.351563l1.019532 37.101563c.195312 6.996093-6.703126 12.007812-13.296876 9.660156l-34.96875-12.433594c-2.160156-.769531-4.519531-.769531-6.679687 0zm0 0" fill="#5de0bf" data-original="#5DE0BF" class="" style="fill:#4582FF" data-old_color="#4582ff"/><g fill="#ffc843"><path d="m242.105469 436.015625-36.410157 12.949219 1.0625-38.628906-23.566406-30.628907 37.066406-10.925781 21.847657-31.875 21.84375 31.875 37.070312 10.925781-23.566406 30.628907 1.0625 38.628906zm0 0" data-original="#000000" class="active-path" style="fill:#04D2C8" data-old_color="#04d2c8"/><path d="m456.089844 240.015625-17.382813 6.179687.507813-18.4375-11.25-14.621093 17.695312-5.214844 10.429688-15.21875 10.425781 15.21875 17.695313 5.214844-11.25 14.621093.507812 18.4375zm0 0" data-original="#000000" class="active-path" style="fill:#04D2C8" data-old_color="#04d2c8"/><path d="m28.121094 240.015625-17.378906 6.179687.507812-18.4375-11.25-14.621093 17.695312-5.214844 10.425782-15.21875 10.429687 15.21875 17.695313 5.214844-11.25 14.621093.507812 18.4375zm0 0" data-original="#000000" class="active-path" style="fill:#04D2C8" data-old_color="#04d2c8"/><path d="m271.175781 226.328125c5.070313 0 8.753907 4.804687 7.453125 9.707031-4.285156 16.164063-19.011718 28.074219-36.523437 28.074219s-32.238281-11.910156-36.523438-28.074219c-1.300781-4.902344 2.382813-9.707031 7.453125-9.707031zm0 0" data-original="#000000" class="active-path" style="fill:#04D2C8" data-old_color="#04d2c8"/></g><path d="m87.753906 474.167969c-4.140625 0-7.5 3.359375-7.5 7.5v22.832031c0 4.144531 3.359375 7.5 7.5 7.5h308.703125c4.140625 0 7.5-3.355469 7.5-7.5v-67.832031c0-4.144531-3.359375-7.503907-7.5-7.503907s-7.5 3.359376-7.5 7.503907v60.332031h-43.617187v-92.335938c0-4.140624-3.359375-7.5-7.5-7.5s-7.5 3.359376-7.5 7.5v92.335938h-176.46875v-92.335938c0-4.140624-3.359375-7.5-7.5-7.5s-7.5 3.359376-7.5 7.5v92.335938h-43.617188v-15.332031c0-4.140625-3.359375-7.5-7.5-7.5zm0 0" fill="#434c54" data-original="#434C54" class=""/><path d="m201.953125 180.535156c0-4.144531-3.359375-7.5-7.5-7.5h-1.167969c-4.144531 0-7.5 3.355469-7.5 7.5 0 4.140625 3.355469 7.5 7.5 7.5h1.167969c4.140625 0 7.5-3.359375 7.5-7.5zm0 0" fill="#969ba1" data-original="#969BA1"/><path d="m290.925781 173.035156h-1.167969c-4.140624 0-7.5 3.355469-7.5 7.5 0 4.140625 3.359376 7.5 7.5 7.5h1.167969c4.144531 0 7.5-3.359375 7.5-7.5 0-4.144531-3.355469-7.5-7.5-7.5zm0 0" fill="#969ba1" data-original="#969BA1"/><path d="m80.253906 357.035156v94.542969c0 4.144531 3.359375 7.5 7.5 7.5s7.5-3.355469 7.5-7.5v-90.199219zm0 0" fill="#434c54" data-original="#434C54" class=""/><path d="m388.957031 343.980469v60.6875c0 4.144531 3.359375 7.5 7.5 7.5 4.144531 0 7.5-3.355469 7.5-7.5v-65.03125zm0 0" fill="#434c54" data-original="#434C54" class=""/><path d="m368.726562 309.714844 10.851563 9.535156 11.53125-9.625-9.34375-10.105469c-10.113281-7.949219-22.503906-12.269531-35.597656-12.269531h-27.902344c19.363281-14.980469 34.332031-35.628906 42.195313-59.878906 22.5-.75 40.578124-19.277344 40.578124-41.964844 0-12.367188-5.394531-23.945312-14.648437-31.875.738281-3.984375 1.316406-8.199219 1.71875-12.609375.371094-4.125-2.671875-7.773437-6.796875-8.144531-4.128906-.371094-7.773438 2.667968-8.144531 6.792968-.5 5.546876-1.300781 10.726563-2.378907 15.398438-1.941406 8.453125-4.582031 14.414062-7.09375 18.542969-1.648437-6.75-4.15625-15.222657-7.878906-24.015625-5.75-13.597656-12.964844-24.617188-21.5-32.886719 2.535156-2.839844 4.691406-5.90625 6.417969-9.222656 7.152344-13.734375 5.988281-28.300781 5.136719-38.9375-.160156-2.015625-.3125-3.921875-.378906-5.554688-.042969-1.019531-.117188-2.027343-.207032-3.027343 11.265625 9.070312 25.132813 25.503906 27.976563 52.640624.402343 3.851563 3.65625 6.71875 7.449219 6.71875.261718 0 .527343-.015624.789062-.042968 4.121094-.433594 7.109375-4.121094 6.679688-8.242188-5.042969-48.125-39.917969-68.351562-49.886719-73.191406-3.769531-6.414062-8.984375-12.148438-15.664063-17.136719-29.007812-21.675781-81.371094-23.976562-108.019531-17.304687-30.238281 7.574218-57.925781.125-58.191406.050781-3.15625-.878906-6.59375.382813-8.402344 3.289063-1.140625 1.832031-1.359375 4.101562-.773437 6.183593l3.324218 11.804688c-8.652344 3.8125-19.105468 10.988281-28.546875 24.476562-11.71875 16.746094-19.074219 39.335938-21.855469 67.140625-1.351562 13.546875-1.195312 25.339844-.121093 35.515625-10.507813 7.875-16.867188 20.34375-16.867188 33.636719 0 22.691406 18.082031 41.222656 40.585938 41.964844 7.808593 23.960937 22.699219 44.746094 42.195312 59.878906h-27.910156c-13.09375 0-25.484375 4.320312-35.601563 12.269531l-10.339843 9.167969 14.492187 6.988281 11.023438-8.015625c.78125-.566406 1.601562-1.078125 2.480468-1.484375 5.546876-2.566406 11.632813-3.925781 17.945313-3.925781h52.722656c15.660157 7.117188 33.042969 11.089844 51.335938 11.089844 18.089843 0 35.476562-3.953125 51.234375-11.089844h52.828125c4.617187 0 9.117187.726562 13.371093 2.125 3.394532 1.113281 6.5 2.976562 9.1875 5.339844zm-2.246093-116.714844c4.183593-3.253906 10.394531-9.820312 15.195312-22.300781 2.804688 4.3125 4.363281 9.394531 4.363281 14.707031 0 13.050781-9.308593 23.96875-21.628906 26.460938 1.160156-6.199219 1.863282-12.503907 2.070313-18.867188zm-268.308594-7.59375c0-5.6875 1.820313-11.132812 5.019531-15.636719 4.648438 18.53125 12.078125 28.976563 15.222656 32.761719.34375 3.148438.808594 6.261719 1.382813 9.335938-12.320313-2.496094-21.625-13.410157-21.625-26.460938zm22.371094-9.804688c-2-5.472656-3.847657-12.316406-5.03125-20.625-.023438-.375-.070313-.753906-.152344-1.125-1.316406-9.917968-1.691406-21.867187-.269531-36.105468 6.488281-64.871094 37.335937-78.582032 46.636718-81.238282 3.96875-1.136718 6.273438-5.265624 5.15625-9.242187l-1.96875-7.003906c12.230469 1.746093 32.039063 2.933593 53.339844-2.398438 23.152344-5.800781 70.445313-3.875 95.394532 14.769531 5.53125 4.128907 9.664062 8.796876 12.460937 14.066407.066406.136719.132813.273437.207031.40625 2.539063 4.925781 3.933594 10.375 4.1875 16.417969.078125 1.917968.242188 3.960937.414063 6.125.746093 9.3125 1.671875 20.902343-3.488281 30.8125-2.039063 3.914062-4.929688 7.351562-8.664063 10.351562-.035156.023438-.070313.054688-.105469.082031-7.554687 6.019531-18.585937 10.234375-33.371094 12.746094-23.027343 3.910156-44.667968 2.957031-63.757812 2.121094-32.480469-1.429688-60.535156-2.660157-80.90625 20.15625-10.503906 11.757812-16.636719 21.632812-20.082031 29.683593zm121.5625 122.734376c-60.34375 0-109.441407-49.09375-109.441407-109.441407 0-.609375-.082031-1.203125-.21875-1.773437 1.667969-6.492188 6.472657-16.773438 19.367188-31.21875 15.632812-17.507813 38.042969-16.523438 69.058594-15.160156 19.839844.871093 42.328125 1.859374 66.925781-2.316407 14.179687-2.410156 25.816406-6.488281 34.894531-12.160156 7.585938 6.9375 14.070313 16.683594 19.308594 29.074219 6.777344 16.015625 9.144531 31.207031 9.539062 34.003906-.039062 9.640625-1.320312 19.171875-3.832031 28.347656-12.898437 47.484375-56.324219 80.644532-105.601562 80.644532zm0 0" fill="#434c54" data-original="#434C54" class=""/><path d="m402.566406 365.183594-30.398437 10.808594.886719-32.25-19.671876-25.566407 30.945313-9.125 18.238281-26.609375 18.238282 26.609375 30.941406 9.125-19.671875 25.566407.886719 32.25zm0 0" fill="#ffc843" data-original="#FFC843" class="" style="fill:#04D2C8" data-old_color="#04d2c8"/><path d="m81.644531 365.183594-30.394531 10.808594.886719-32.25-19.671875-25.566407 30.945312-9.125 18.234375-26.609375 18.238281 26.609375 30.945313 9.125-19.671875 25.566407.886719 32.25zm0 0" fill="#ffc843" data-original="#FFC843" class="" style="fill:#04D2C8" data-old_color="#04d2c8"/></g> </svg>
