<?xml version="1.0"?>
<svg xmlns="http://www.w3.org/2000/svg" height="512px" viewBox="-1 0 511 512" width="512px" class=""><g><path d="m434.632812 291.183594c0 117.8125-95.507812 213.316406-213.316406 213.316406-117.8125 0-213.316406-95.503906-213.316406-213.316406s95.503906-213.316406 213.316406-213.316406c117.808594 0 213.316406 95.503906 213.316406 213.316406zm0 0" fill="#ffc843" data-original="#FFC843" class="active-path" style="fill:#4582FF" data-old_color="#4582ff"/><path d="m380.921875 291.183594c0 88.148437-71.460937 159.605468-159.605469 159.605468-88.148437 0-159.605468-71.457031-159.605468-159.605468 0-88.148438 71.457031-159.605469 159.605468-159.605469 88.144532 0 159.605469 71.457031 159.605469 159.605469zm0 0" fill="#fff" data-original="#FFF" class=""/><path d="m318.988281 291.183594c0 53.945312-43.730469 97.671875-97.671875 97.671875-53.945312 0-97.675781-43.726563-97.675781-97.671875 0-53.941406 43.730469-97.671875 97.675781-97.671875 53.941406 0 97.671875 43.730469 97.671875 97.671875zm0 0" fill="#ffc843" data-original="#FFC843" class="active-path" style="fill:#4582FF" data-old_color="#4582ff"/><path d="m261.027344 291.183594c0 21.933594-17.78125 39.714844-39.710938 39.714844-21.933594 0-39.714844-17.78125-39.714844-39.714844s17.78125-39.710938 39.714844-39.710938c21.929688 0 39.710938 17.777344 39.710938 39.710938zm0 0" fill="#fff" data-original="#FFF" class=""/><path d="m418.863281 291.183594h51.785157l12.886718-20.007813 19.277344-29.941406-67.46875 12.949219-7.570312 16.992187zm0 0" fill="#76ffd9" data-original="#76FFD9" class=""/><path d="m418.863281 291.183594 8.382813 18.832031 8.097656 18.171875 67.46875 12.945312-20.042969-31.117187-12.121093-18.832031zm0 0" fill="#5de0bf" data-original="#5DE0BF"/><g fill="#434c54"><path d="m15.5 291.183594c0-113.484375 92.328125-205.816406 205.816406-205.816406 57.277344 0 112.417969 24.15625 151.285156 66.273437 2.808594 3.042969 7.554688 3.234375 10.597657.425781 3.046875-2.808594 3.234375-7.554687.425781-10.597656-20.472656-22.1875-44.769531-39.660156-72.210938-51.941406-2.589843-1.160156-5.203124-2.246094-7.824218-3.300782-.261719-.441406-.570313-.863281-.933594-1.257812l-75.816406-82.542969c-1.417969-1.546875-3.421875-2.425781-5.523438-2.425781-2.097656 0-4.101562.878906-5.523437 2.425781l-76.554688 83.347657c-.132812.148437-.257812.300781-.378906.457031-27.257813 10.960937-52.285156 27.414062-73.683594 48.816406-41.707031 41.703125-64.675781 97.15625-64.675781 156.136719 0 52.257812 18.589844 102.953125 52.339844 142.75 1.484375 1.75 3.597656 2.648437 5.722656 2.648437 1.714844 0 3.441406-.582031 4.847656-1.777343 3.160156-2.679688 3.550782-7.414063.871094-10.574219-31.457031-37.089844-48.78125-84.339844-48.78125-133.046875zm205.816406-272.597656 53.574219 58.324218c-17.390625-4.339844-35.300781-6.542968-53.574219-6.542968-18.285156 0-36.230468 2.214843-53.53125 6.503906zm0 0" data-original="#000000" class="" style="fill:#000000"/><path d="m481.800781 294.65625c.542969-1.039062.855469-2.21875.855469-3.472656s-.308594-2.429688-.855469-3.46875l27.316407-42.410156c1.625-2.523438 1.59375-5.773438-.089844-8.261719-1.675782-2.484375-4.679688-3.730469-7.625-3.167969l-63.90625 12.261719c-5.910156-28.359375-17.476563-55.628907-33.851563-79.554688-2.335937-3.417969-7.003906-4.292969-10.421875-1.953125-3.417968 2.339844-4.292968 7.007813-1.957031 10.425782 17.261719 25.21875 28.789063 54.421874 33.4375 84.578124l-10.710937 24.050782h-192.675782c-4.144531 0-7.5 3.355468-7.5 7.5 0 4.140625 3.355469 7.5 7.5 7.5h192.675782l10.714843 24.058594c-15.316406 99.492187-102.367187 174.257812-203.390625 174.257812-49.511718 0-97.363281-17.839844-134.738281-50.226562-3.128906-2.714844-7.867187-2.375-10.578125.753906-2.714844 3.128906-2.375 7.867187.753906 10.578125 40.101563 34.753906 91.441406 53.894531 144.5625 53.894531 53.457032 0 105.039063-19.351562 145.242188-54.488281 36.363281-31.78125 61.226562-74.445313 70.953125-121.277344l63.890625 12.257813c.472656.089843.945312.136718 1.414062.136718 2.460938 0 4.800782-1.214844 6.214844-3.304687 1.679688-2.488281 1.714844-5.734375.089844-8.257813zm-41.203125-33.839844 46.425782-8.90625-20.46875 31.773438h-36.144532zm0 60.738282-10.1875-22.871094h36.144532l20.46875 31.777344zm0 0" data-original="#000000" class="" style="fill:#000000"/><path d="m220.730469 229.5h1.167969c4.144531 0 7.5-3.359375 7.5-7.5s-3.355469-7.5-7.5-7.5h-1.167969c-4.140625 0-7.5 3.359375-7.5 7.5s3.359375 7.5 7.5 7.5zm0 0" data-original="#000000" class="" style="fill:#000000"/><path d="m220.730469 168.5h1.167969c4.144531 0 7.5-3.359375 7.5-7.5s-3.355469-7.5-7.5-7.5h-1.167969c-4.140625 0-7.5 3.359375-7.5 7.5s3.359375 7.5 7.5 7.5zm0 0" data-original="#000000" class="" style="fill:#000000"/><path d="m220.730469 97.839844c-4.140625 0-7.5 3.359375-7.5 7.5 0 4.144531 3.359375 7.5 7.5 7.5h1.167969c4.144531 0 7.5-3.355469 7.5-7.5 0-4.140625-3.355469-7.5-7.5-7.5zm0 0" data-original="#000000" class="" style="fill:#000000"/><path d="m220.730469 367.125h1.167969c4.144531 0 7.5-3.359375 7.5-7.5 0-4.144531-3.355469-7.5-7.5-7.5h-1.167969c-4.140625 0-7.5 3.355469-7.5 7.5 0 4.140625 3.359375 7.5 7.5 7.5zm0 0" data-original="#000000" class="" style="fill:#000000"/><path d="m221.898438 413.125h-1.167969c-4.140625 0-7.5 3.355469-7.5 7.5 0 4.140625 3.359375 7.5 7.5 7.5h1.167969c4.144531 0 7.5-3.359375 7.5-7.5 0-4.144531-3.355469-7.5-7.5-7.5zm0 0" data-original="#000000" class="" style="fill:#000000"/><path d="m221.898438 483.78125c4.144531 0 7.5-3.355469 7.5-7.5 0-4.140625-3.355469-7.5-7.5-7.5h-1.167969c-4.140625 0-7.5 3.359375-7.5 7.5 0 4.144531 3.359375 7.5 7.5 7.5zm0 0" data-original="#000000" class="" style="fill:#000000"/></g></g> </svg>
