<?xml version="1.0"?>
<svg xmlns="http://www.w3.org/2000/svg" height="512px" viewBox="1 -52 511.999 511" width="512px" class=""><g><path d="m344.082031 8h-310.335937c-14.496094 0-26.246094 11.75-26.246094 26.246094v189.5625c0 12.800781 15.476562 19.210937 24.523438 10.160156l49.089843-49.089844h262.96875c14.496094 0 26.246094-11.75 26.246094-26.246094v-124.386718c0-14.496094-11.75-26.246094-26.246094-26.246094zm0 0" fill="#76ffd9" data-original="#76FFD9" class="active-path" style="fill:#4582FF" data-old_color="#4582ff"/><path d="m286.066406 230.035156h201.402344c9.40625 0 17.03125 7.628906 17.03125 17.035156v144.023438c0 8.304688-10.042969 12.464844-15.914062 6.589844l-31.859376-31.855469h-170.660156c-9.410156 0-17.035156-7.625-17.035156-17.03125v-101.726563c0-9.40625 7.625-17.035156 17.035156-17.035156zm0 0" fill="#ffc843" data-original="#FFC843" class="" style="fill:#04D2C8" data-old_color="#04d2c8"/><path d="m22.003906 245.730469c-2.835937 0-5.714844-.5625-8.507812-1.71875-8.324219-3.449219-13.496094-11.191407-13.496094-20.203125v-189.5625c0-18.609375 15.140625-33.746094 33.746094-33.746094h243.921875c4.140625 0 7.5 3.355469 7.5 7.5 0 4.140625-3.359375 7.5-7.5 7.5h-243.921875c-10.335938 0-18.746094 8.410156-18.746094 18.746094v189.5625c0 4.257812 3.242188 5.933594 4.238281 6.34375.992188.414062 4.472657 1.519531 7.484375-1.488282l49.085938-49.085937c1.40625-1.40625 3.3125-2.199219 5.304687-2.199219h56.886719c4.144531 0 7.5 3.359375 7.5 7.5 0 4.144532-3.355469 7.5-7.5 7.5h-53.78125l-46.890625 46.894532c-4.234375 4.234374-9.695313 6.457031-15.324219 6.457031zm0 0" fill="#434c54" data-original="#434C54" class=""/><path d="m344.082031 192.378906h-175.082031c-4.144531 0-7.5-3.355468-7.5-7.5 0-4.140625 3.355469-7.5 7.5-7.5h175.082031c10.335938 0 18.746094-8.410156 18.746094-18.746094v-124.386718c0-10.335938-8.410156-18.746094-18.746094-18.746094h-34.648437c-4.144532 0-7.5-3.359375-7.5-7.5 0-4.144531 3.355468-7.5 7.5-7.5h34.648437c18.605469 0 33.746094 15.136719 33.746094 33.746094v124.386718c0 18.609376-15.140625 33.746094-33.746094 33.746094zm0 0" fill="#434c54" data-original="#434C54" class=""/><path d="m495.160156 407.921875c-4.371094 0-8.652344-1.707031-11.878906-4.933594l-29.660156-29.660156h-167.554688c-13.527344 0-24.535156-11.007813-24.535156-24.535156v-101.722657c0-13.527343 11.007812-24.535156 24.535156-24.535156h201.398438c13.527344 0 24.535156 11.007813 24.535156 24.535156v34.8125c0 4.144532-3.359375 7.5-7.5 7.5-4.144531 0-7.5-3.355468-7.5-7.5v-34.8125c0-5.257812-4.277344-9.535156-9.535156-9.535156h-201.398438c-5.257812 0-9.535156 4.277344-9.535156 9.535156v101.726563c0 5.253906 4.277344 9.53125 9.535156 9.53125h170.660156c1.988282 0 3.894532.789063 5.300782 2.195313l31.859375 31.855468c.574219.574219 1.242187.703125 1.984375.398438.75-.3125 1.128906-.878906 1.128906-1.6875v-78.121094c0-4.140625 3.355469-7.5 7.5-7.5 4.140625 0 7.5 3.359375 7.5 7.5v78.121094c0 6.828125-4.078125 12.933594-10.386719 15.542968-2.09375.871094-4.285156 1.289063-6.453125 1.289063zm0 0" fill="#434c54" data-original="#434C54" class=""/><g fill="#00c395"><path d="m116.898438 54.472656h-59c-4.144532 0-7.5-3.359375-7.5-7.5 0-4.144531 3.355468-7.5 7.5-7.5h59c4.140624 0 7.5 3.355469 7.5 7.5 0 4.140625-3.359376 7.5-7.5 7.5zm0 0" data-original="#000000" class="" style="fill:#F7F2F2" data-old_color="#EBDDDD"/><path d="m319.929688 160.085938h-15.03125c-4.144532 0-7.5-3.355469-7.5-7.5 0-4.140626 3.355468-7.5 7.5-7.5h15.03125c4.144531 0 7.5 3.359374 7.5 7.5 0 4.144531-3.355469 7.5-7.5 7.5zm0 0" data-original="#000000" class="" style="fill:#F7F2F2" data-old_color="#EBDDDD"/><path d="m282.5625 160.085938h-15.03125c-4.144531 0-7.5-3.355469-7.5-7.5 0-4.140626 3.355469-7.5 7.5-7.5h15.03125c4.144531 0 7.5 3.359374 7.5 7.5 0 4.144531-3.355469 7.5-7.5 7.5zm0 0" data-original="#000000" class="" style="fill:#F7F2F2" data-old_color="#EBDDDD"/><path d="m314.898438 102.148438h-257c-4.144532 0-7.5-3.359376-7.5-7.5 0-4.144532 3.355468-7.5 7.5-7.5h257c4.140624 0 7.5 3.355468 7.5 7.5 0 4.140624-3.359376 7.5-7.5 7.5zm0 0" data-original="#000000" class="" style="fill:#F7F2F2" data-old_color="#EBDDDD"/><path d="m314.898438 128.132812h-257c-4.144532 0-7.5-3.355468-7.5-7.5 0-4.140624 3.355468-7.5 7.5-7.5h257c4.140624 0 7.5 3.359376 7.5 7.5 0 4.144532-3.359376 7.5-7.5 7.5zm0 0" data-original="#000000" class="" style="fill:#F7F2F2" data-old_color="#EBDDDD"/></g><path d="m344.339844 269.726562h-34.90625c-4.144532 0-7.5-3.355468-7.5-7.5 0-4.144531 3.355468-7.5 7.5-7.5h34.90625c4.144531 0 7.5 3.355469 7.5 7.5 0 4.144532-3.359375 7.5-7.5 7.5zm0 0" fill="#ff8025" data-original="#FF8025" class="" style="fill:#FDFCFB" data-old_color="#F4EBE5"/><path d="m464.464844 344.214844h-8.894532c-4.140624 0-7.5-3.359375-7.5-7.5 0-4.144532 3.359376-7.5 7.5-7.5h8.894532c4.144531 0 7.5 3.355468 7.5 7.5 0 4.140625-3.355469 7.5-7.5 7.5zm0 0" fill="#ff8025" data-original="#FF8025" class="" style="fill:#FDFCFB" data-old_color="#F4EBE5"/><path d="m435.152344 344.214844h-8.894532c-4.140624 0-7.5-3.359375-7.5-7.5 0-4.144532 3.359376-7.5 7.5-7.5h8.894532c4.144531 0 7.5 3.355468 7.5 7.5 0 4.140625-3.355469 7.5-7.5 7.5zm0 0" fill="#ff8025" data-original="#FF8025" class="" style="fill:#FDFCFB" data-old_color="#F4EBE5"/><path d="m461.488281 300.933594h-152.054687c-4.144532 0-7.5-3.355469-7.5-7.5 0-4.144532 3.355468-7.5 7.5-7.5h152.054687c4.144531 0 7.5 3.355468 7.5 7.5 0 4.144531-3.355469 7.5-7.5 7.5zm0 0" fill="#ff8025" data-original="#FF8025" class="" style="fill:#FDFCFB" data-old_color="#F4EBE5"/><path d="m461.488281 322.308594h-152.054687c-4.144532 0-7.5-3.355469-7.5-7.5 0-4.140625 3.355468-7.5 7.5-7.5h152.054687c4.144531 0 7.5 3.359375 7.5 7.5 0 4.144531-3.355469 7.5-7.5 7.5zm0 0" fill="#ff8025" data-original="#FF8025" class="" style="fill:#FDFCFB" data-old_color="#F4EBE5"/></g> </svg>
