<?xml version="1.0"?>
<svg xmlns="http://www.w3.org/2000/svg" height="512px" viewBox="-71 1 511 511.999" width="512px" class=""><g><path d="m87.472656 388.683594-11.871094 51.371094-14.886718 64.445312h-41.339844l14.898438-64.445312 11.871093-51.371094zm0 0" fill="#ffc843" data-original="#FFC843" class="active-path" style="fill:#4582FF" data-old_color="#4582ff"/><path d="m46.144531 388.683594h41.328125l-11.871094 51.371094h-41.328124zm0 0" fill="#ffb400" data-original="#FFB400"/><path d="m350.847656 504.5h-41.339844l-14.886718-64.445312-11.871094-51.371094h41.328125l11.875 51.371094zm0 0" fill="#ffc843" data-original="#FFC843" class="active-path" style="fill:#4582FF" data-old_color="#4582ff"/><path d="m335.953125 440.054688h-41.332031l-11.871094-51.371094h41.328125zm0 0" fill="#ffb400" data-original="#FFB400"/><path d="m8 22.816406h354.230469v391.554688h-354.230469zm0 0" fill="#fff" data-original="#FFF" class=""/><path d="m339.59375 22.816406h22.632812v391.554688h-22.632812zm0 0" fill="#e1eaf8" data-original="#E1EAF8" class=""/><path d="m8.058594 22.816406h22.632812v391.554688h-22.632812zm0 0" fill="#e1eaf8" data-original="#E1EAF8" class=""/><path d="m111.5625 7.5h147.097656v48.449219h-147.097656zm0 0" fill="#ffc843" data-original="#FFC843" class="active-path" style="fill:#4582FF" data-old_color="#4582ff"/><path d="m288.847656 185.609375c0 57.292969-46.441406 103.734375-103.734375 103.734375-33.949219 0-64.085937-16.304688-83.003906-41.511719-13.019531-17.332031-20.730469-38.878906-20.730469-62.222656 0-57.292969 46.441406-103.738281 103.734375-103.738281 23.34375 0 44.890625 7.714844 62.222657 20.730468 25.210937 18.921876 41.511718 49.058594 41.511718 83.007813zm0 0" fill="#76ffd9" data-original="#76FFD9" class=""/><path d="m288.847656 185.609375c0 6.195313-.542968 12.261719-1.585937 18.15625-1.453125 8.207031-3.855469 16.074219-7.117188 23.492187-5.1875 11.816407-12.503906 22.480469-21.472656 31.496094-18.789063 18.894532-44.804687 30.589844-73.558594 30.589844-33.949219 0-64.085937-16.304688-83.003906-41.511719l86.675781-62.222656 58.550782-83.007813c25.210937 18.921876 41.511718 49.058594 41.511718 83.007813zm0 0" fill="#ffc843" data-original="#FFC843" class="active-path" style="fill:#4582FF" data-old_color="#4582ff"/><path d="m287.261719 203.765625c-1.453125 8.207031-3.855469 16.074219-7.117188 23.492187-5.1875 11.816407-12.503906 22.480469-21.472656 31.496094l-69.886719-73.144531zm0 0" fill="#ff8025" data-original="#FF8025" class=""/><path d="m288.847656 185.609375c0 6.195313-.542968 12.261719-1.585937 18.15625l-98.476563-18.15625 58.550782-83.007813c25.210937 18.921876 41.511718 49.058594 41.511718 83.007813zm0 0" fill="#5de0bf" data-original="#5DE0BF"/><path d="m53.296875 303.667969h36.664063v36.664062h-36.664063zm0 0" fill="#76ffd9" data-original="#76FFD9" class=""/><path d="m53.296875 355.519531h36.664063v36.667969h-36.664063zm0 0" fill="#ffc843" data-original="#FFC843" class="active-path" style="fill:#4582FF" data-old_color="#4582ff"/><path d="m210.066406 303.667969h36.664063v36.664062h-36.664063zm0 0" fill="#5de0bf" data-original="#5DE0BF"/><path d="m210.066406 355.519531h36.664063v36.667969h-36.664063zm0 0" fill="#ff8025" data-original="#FF8025" class=""/><path d="m8.003906 351.738281c4.144532 0 7.5-3.355469 7.5-7.5v-313.917969h88.558594v25.628907c0 4.144531 3.359375 7.5 7.5 7.5h147.097656c4.144532 0 7.5-3.355469 7.5-7.5v-25.628907h88.5625v44.679688c0 4.144531 3.359375 7.5 7.5 7.5 4.144532 0 7.5-3.355469 7.5-7.5v-52.179688c0-4.144531-3.355468-7.5-7.5-7.5h-96.0625v-7.820312c0-4.144531-3.355468-7.5-7.5-7.5h-147.097656c-4.140625 0-7.5 3.355469-7.5 7.5v7.820312h-96.058594c-4.140625 0-7.5 3.355469-7.5 7.5v321.417969c0 4.144531 3.359375 7.5 7.5 7.5zm243.15625-336.738281v33.449219h-132.097656v-25.609375c0-.003906.003906-.011719.003906-.019532 0-.003906-.003906-.011718-.003906-.019531v-7.800781zm0 0" fill="#434c54" data-original="#434C54" class=""/><path d="m362.230469 94.5c-4.144531 0-7.5 3.355469-7.5 7.5v304.871094h-339.230469v-33.019532c0-4.140624-3.359375-7.5-7.5-7.5s-7.5 3.359376-7.5 7.5v40.519532c0 4.140625 3.359375 7.5 7.5 7.5h22.773438l-18.707032 80.941406c-.515625 2.226562.015625 4.566406 1.4375 6.355469 1.421875 1.789062 3.582032 2.832031 5.871094 2.832031h41.339844c3.492187 0 6.519531-2.410156 7.308594-5.8125l19.484374-84.320312h195.199219l19.488281 84.320312c.785157 3.402344 3.816407 5.8125 7.308594 5.8125h41.339844c2.285156 0 4.449219-1.042969 5.871094-2.832031 1.421875-1.789063 1.953125-4.132813 1.4375-6.355469l-18.707032-80.941406h22.785157c4.140625 0 7.5-3.359375 7.5-7.5v-312.371094c0-4.144531-3.359375-7.5-7.5-7.5zm-307.480469 402.5h-25.945312l17.363281-75.128906h25.945312zm286.664062 0h-25.945312l-17.363281-75.128906h25.945312zm0 0" fill="#434c54" data-original="#434C54" class=""/><g fill="#969ba1"><path d="m109.6875 318.667969h12.675781c4.140625 0 7.5-3.359375 7.5-7.5 0-4.144531-3.359375-7.5-7.5-7.5h-12.675781c-4.144531 0-7.5 3.355469-7.5 7.5 0 4.140625 3.355469 7.5 7.5 7.5zm0 0" data-original="#000000" class="" style="fill:#000000"/><path d="m152.664062 325.332031h-42.976562c-4.144531 0-7.5 3.359375-7.5 7.5 0 4.144531 3.355469 7.5 7.5 7.5h42.976562c4.140626 0 7.5-3.355469 7.5-7.5 0-4.140625-3.359374-7.5-7.5-7.5zm0 0" data-original="#000000" class="" style="fill:#000000"/><path d="m109.6875 370.519531h12.675781c4.140625 0 7.5-3.359375 7.5-7.5 0-4.144531-3.359375-7.5-7.5-7.5h-12.675781c-4.144531 0-7.5 3.355469-7.5 7.5 0 4.140625 3.355469 7.5 7.5 7.5zm0 0" data-original="#000000" class="" style="fill:#000000"/><path d="m109.6875 392.1875h42.976562c4.140626 0 7.5-3.359375 7.5-7.5 0-4.144531-3.359374-7.5-7.5-7.5h-42.976562c-4.144531 0-7.5 3.355469-7.5 7.5 0 4.140625 3.355469 7.5 7.5 7.5zm0 0" data-original="#000000" class="" style="fill:#000000"/><path d="m266.457031 303.667969c-4.144531 0-7.5 3.355469-7.5 7.5 0 4.140625 3.355469 7.5 7.5 7.5h12.675781c4.144532 0 7.5-3.359375 7.5-7.5 0-4.144531-3.355468-7.5-7.5-7.5zm0 0" data-original="#000000" class="" style="fill:#000000"/><path d="m309.433594 325.332031h-42.980469c-4.140625 0-7.5 3.359375-7.5 7.5 0 4.144531 3.359375 7.5 7.5 7.5h42.980469c4.144531 0 7.5-3.355469 7.5-7.5 0-4.140625-3.355469-7.5-7.5-7.5zm0 0" data-original="#000000" class="" style="fill:#000000"/><path d="m266.457031 370.519531h12.675781c4.144532 0 7.5-3.359375 7.5-7.5 0-4.144531-3.355468-7.5-7.5-7.5h-12.675781c-4.144531 0-7.5 3.355469-7.5 7.5 0 4.140625 3.355469 7.5 7.5 7.5zm0 0" data-original="#000000" class="" style="fill:#000000"/><path d="m266.457031 392.1875h42.976563c4.144531 0 7.5-3.359375 7.5-7.5 0-4.144531-3.355469-7.5-7.5-7.5h-42.976563c-4.144531 0-7.5 3.355469-7.5 7.5 0 4.140625 3.355469 7.5 7.5 7.5zm0 0" data-original="#000000" class="" style="fill:#000000"/></g></g> </svg>
