<?xml version="1.0" encoding="utf-8"?>
<!-- Generator: Adobe Illustrator 22.1.0, SVG Export Plug-In . SVG Version: 6.00 Build 0)  -->
<svg version="1.1" id="Layer_1" xmlns="http://www.w3.org/2000/svg" xmlns:xlink="http://www.w3.org/1999/xlink" x="0px" y="0px"
	 viewBox="0 0 512 512" style="enable-background:new 0 0 512 512;" xml:space="preserve">
<style type="text/css">
	.st0{fill:#04D2C8;}
</style>
<path class="st0" d="M406,186c5.5,0,10-4.5,10-10s-4.5-10-10-10s-10,4.5-10,10S400.5,186,406,186z"/>
<path class="st0" d="M398.2,442.2c5.3,6.6,15.9,4.1,17.6-4.3l86-425.9c0.6-3-0.1-6.2-2.2-8.5c0,0,0,0,0,0v0
	c-2.7-3.1-6.2-3.3-6.3-3.4c-1.5-0.2-2.9-0.1-4.5,0.4L23,146.5c-9,2.8-9.4,15.6-0.5,18.9L175,222.5l-18.9,132c0,0.1,0,0.1,0,0.1
	c-1,7.9,7.2,13.8,14.4,10.2L289,305.7L398.2,442.2z M400.4,413c-6.4-8-134.8-168.4-140.8-176L476.1,38.2L400.4,413z M56.7,156.8
	L429.4,40.1L184.7,204.8L56.7,156.8z M195.3,221.8L387.6,92.3L239.2,228.6c0,0-0.1,0.1-0.1,0.1c-0.1,0.1-0.3,0.3-0.4,0.4
	c-0.1,0.1-0.2,0.2-0.3,0.4c-0.1,0.1-0.2,0.2-0.3,0.3c-0.1,0.2-0.3,0.3-0.4,0.5c0,0.1-0.1,0.1-0.1,0.1l-55.5,83.3L195.3,221.8z
	 M195.2,330.2l51.5-77.3l29.4,36.8L195.2,330.2z"/>
<path class="st0" d="M377.6,355.4c5.5,0.8,10.6-2.9,11.4-8.4l19.5-130.2c0.8-5.5-2.9-10.6-8.4-11.4c-5.5-0.8-10.6,2.9-11.4,8.4
	l-19.5,130.2C368.4,349.5,372.2,354.6,377.6,355.4z"/>
<path class="st0" d="M12.9,509.1c3.9,3.9,10.2,3.9,14.1,0l66-66c3.9-3.9,3.9-10.2,0-14.1c-3.9-3.9-10.2-3.9-14.1,0l-66,66
	C9,498.8,9,505.2,12.9,509.1z"/>
<path class="st0" d="M178.9,428.9l-66,66c-3.9,3.9-3.9,10.2,0,14.1s10.2,3.9,14.1,0l66-66c3.9-3.9,3.9-10.2,0-14.1
	C189.2,425,182.8,425,178.9,428.9z"/>
<path class="st0" d="M12.9,409.1c3.9,3.9,10.2,3.9,14.1,0l66-66c3.9-3.9,3.9-10.2,0-14.1c-3.9-3.9-10.2-3.9-14.1,0l-66,66
	C9,398.8,9,405.2,12.9,409.1z"/>
</svg>
