<?xml version="1.0" encoding="utf-8"?>
<!-- Generator: Adobe Illustrator 22.1.0, SVG Export Plug-In . SVG Version: 6.00 Build 0)  -->
<svg version="1.1" id="Layer_1" xmlns="http://www.w3.org/2000/svg" xmlns:xlink="http://www.w3.org/1999/xlink" x="0px" y="0px"
	 viewBox="0 0 512 512" style="enable-background:new 0 0 512 512;" xml:space="preserve">
<style type="text/css">
	.st0{fill:#04D2C8;}
</style>
<path class="st0" d="M137,322.2c4.8-2.8,6.4-8.9,3.7-13.7c-2.8-4.8-8.9-6.4-13.7-3.7c-4.8,2.8-6.4,8.9-3.7,13.7
	C126.1,323.4,132.2,325,137,322.2z"/>
<path class="st0" d="M96,391.3l50.4,87.2c10.9,18.8,35.3,25.8,54.6,14.6c19.1-11.1,25.7-35.5,14.6-54.6l-30-52l26-15
	c4.8-2.8,6.4-8.9,3.7-13.7l-13-22.5c1.6-0.3,11.7-2.3,191.5-37.6c22.2-1.2,35.5-25.5,24.3-44.9l-33.2-57.6l21.2-32.2
	c2.1-3.2,2.2-7.2,0.3-10.5l-20-34.6c-1.9-3.3-5.5-5.2-9.3-5l-38.5,2.3l-36.9-63.9c-5.3-9.3-14.9-14.9-25.6-15c-0.1,0-0.3,0-0.4,0
	c-10.3,0-19.7,5.1-25.3,13.8L119.9,216.6l-84.9,49c-33.4,19.3-45,62.1-25.6,95.6C27.1,391.9,64.3,403.9,96,391.3z M198.3,448.5
	c5.5,9.6,2.3,21.8-7.3,27.3c-9.6,5.6-21.9,2.1-27.3-7.3l-50-86.6l34.6-20C206.2,462.1,197.4,446.9,198.3,448.5z M175.6,369.2
	l-10-17.3l17.3-10l10,17.3L175.6,369.2z M372.2,133.3l13.8,23.9l-12.3,18.7l-23.8-41.3L372.2,133.3z M267.3,61.2
	c2.7-4.4,6.9-4.8,8.7-4.8c1.7,0,6,0.6,8.5,5l116.3,201.5c3.8,6.6-0.8,14.8-8.4,15c-1.4,0-2,0.3-5.5,0.9l-123-213.1
	C266.4,62.3,266.8,62,267.3,61.2z M250.6,82.6l115.6,200.2L191.7,317l-53-91.9L250.6,82.6z M26.7,351.3c-4.4-7.6-6.7-16.2-6.7-24.9
	c0-17.8,9.6-34.4,25-43.4l77.9-45l50,86.6l-77.9,45C71.1,383.3,40.5,375.1,26.7,351.3z"/>
<path class="st0" d="M106,328.6c-2.8-4.8-8.9-6.4-13.7-3.7l-17.3,10c-4.8,2.8-10.9,1.1-13.7-3.7c-2.8-4.8-8.9-6.4-13.7-3.7
	s-6.4,8.9-3.7,13.7c8.2,14.3,26.6,19.3,41,11l17.3-10C107.1,339.5,108.7,333.4,106,328.6z"/>
<path class="st0" d="M497.1,57.7l-55.7,31c-4.8,2.7-6.6,8.8-3.9,13.6c2.7,4.8,8.8,6.6,13.6,3.9l55.7-31c4.8-2.7,6.6-8.8,3.9-13.6
	C508.1,56.8,502,55.1,497.1,57.7z"/>
<path class="st0" d="M491.3,161.3L452.7,151c-5.3-1.4-10.8,1.7-12.3,7.1s1.7,10.8,7.1,12.2l38.6,10.4c5.4,1.4,10.8-1.8,12.2-7.1
	C499.8,168.2,496.6,162.7,491.3,161.3z"/>
<path class="st0" d="M394.2,21.4l-10.4,38.6c-1.4,5.3,1.7,10.8,7.1,12.3c5.3,1.4,10.8-1.7,12.3-7.1l10.4-38.6
	c1.4-5.3-1.7-10.8-7.1-12.3C401.1,12.9,395.6,16.1,394.2,21.4z"/>
</svg>
